<mxfile host="app.diagrams.net" modified="2023-09-15T20:47:29.124Z" agent="Mozilla/5.0 (Windows NT 10.0; Win64; x64) AppleWebKit/537.36 (KHTML, like Gecko) Chrome/116.0.0.0 Safari/537.36" etag="LyIKCyKgwMe_xbvyHgmE" version="21.7.5" type="github" pages="4">
  <diagram name="Контекстная" id="ZWv0XQIptHX5wj8FlSW1">
    <mxGraphModel dx="1434" dy="790" grid="1" gridSize="10" guides="1" tooltips="1" connect="1" arrows="1" fold="1" page="1" pageScale="1" pageWidth="827" pageHeight="1169" math="0" shadow="0">
      <root>
        <mxCell id="0" />
        <mxCell id="1" parent="0" />
        <mxCell id="_nZTojiyE76JTHtSft5U-11" value="&lt;font style=&quot;font-size: 16px;&quot;&gt;(&amp;nbsp; &amp;nbsp; &amp;nbsp;)&lt;/font&gt;" style="text;html=1;align=center;verticalAlign=middle;resizable=0;points=[];autosize=1;strokeColor=none;fillColor=none;" parent="1" vertex="1">
          <mxGeometry x="383" y="170" width="60" height="30" as="geometry" />
        </mxCell>
        <mxCell id="UwtVmJWAxAAU6NyaN8vT-10" value="" style="swimlane;direction=west;" parent="1" vertex="1">
          <mxGeometry x="23" y="20" width="780" height="730" as="geometry">
            <mxRectangle x="24" y="21" width="50" height="40" as="alternateBounds" />
          </mxGeometry>
        </mxCell>
        <mxCell id="UwtVmJWAxAAU6NyaN8vT-11" value="ВЕТКА: А0" style="text;html=1;strokeColor=default;fillColor=none;align=left;verticalAlign=middle;whiteSpace=wrap;rounded=0;glass=0;" parent="UwtVmJWAxAAU6NyaN8vT-10" vertex="1">
          <mxGeometry y="707" width="80" height="23" as="geometry" />
        </mxCell>
        <mxCell id="UwtVmJWAxAAU6NyaN8vT-12" value="НОМЕР: 1" style="text;html=1;strokeColor=default;fillColor=none;align=left;verticalAlign=middle;whiteSpace=wrap;rounded=0;glass=0;" parent="UwtVmJWAxAAU6NyaN8vT-10" vertex="1">
          <mxGeometry x="700" y="707" width="80" height="23" as="geometry" />
        </mxCell>
        <mxCell id="UwtVmJWAxAAU6NyaN8vT-13" value="ЗАГОЛОВОК:&amp;nbsp;" style="text;html=1;strokeColor=none;fillColor=none;align=left;verticalAlign=middle;whiteSpace=wrap;rounded=0;glass=0;" parent="UwtVmJWAxAAU6NyaN8vT-10" vertex="1">
          <mxGeometry x="80" y="707" width="80" height="23" as="geometry" />
        </mxCell>
        <mxCell id="UwtVmJWAxAAU6NyaN8vT-14" value="А-0 Проверка весовых коэффициентов" style="text;html=1;strokeColor=none;fillColor=none;align=center;verticalAlign=middle;whiteSpace=wrap;rounded=0;glass=0;" parent="UwtVmJWAxAAU6NyaN8vT-10" vertex="1">
          <mxGeometry x="80" y="707" width="620" height="23" as="geometry" />
        </mxCell>
        <mxCell id="UwtVmJWAxAAU6NyaN8vT-15" value="&lt;p style=&quot;line-height: 100%;&quot;&gt;Цель: Проверка весовых коэффициентов&lt;/p&gt;&lt;p style=&quot;line-height: 50%;&quot;&gt;Точка зрения: Разработчик ПО&lt;/p&gt;" style="text;html=1;strokeColor=none;fillColor=none;align=left;verticalAlign=middle;whiteSpace=wrap;rounded=0;" parent="UwtVmJWAxAAU6NyaN8vT-10" vertex="1">
          <mxGeometry x="46" y="650" width="174" height="57" as="geometry" />
        </mxCell>
        <mxCell id="UwtVmJWAxAAU6NyaN8vT-34" value="Табличный хи-квадрат" style="endArrow=block;html=1;rounded=0;exitX=1;exitY=0.12;exitDx=0;exitDy=0;exitPerimeter=0;endFill=1;" parent="UwtVmJWAxAAU6NyaN8vT-10" edge="1">
          <mxGeometry width="50" height="50" relative="1" as="geometry">
            <mxPoint x="586" y="180" as="sourcePoint" />
            <mxPoint x="747" y="180" as="targetPoint" />
          </mxGeometry>
        </mxCell>
        <mxCell id="_nZTojiyE76JTHtSft5U-1" value="Матрица из комбинаций&lt;br&gt;рангов" style="endArrow=block;html=1;rounded=0;exitX=1;exitY=0.5;exitDx=0;exitDy=0;endFill=1;labelBackgroundColor=none;" parent="UwtVmJWAxAAU6NyaN8vT-10" edge="1">
          <mxGeometry width="50" height="50" relative="1" as="geometry">
            <mxPoint x="586" y="208" as="sourcePoint" />
            <mxPoint x="747" y="208" as="targetPoint" />
          </mxGeometry>
        </mxCell>
        <mxCell id="_nZTojiyE76JTHtSft5U-2" value="Длительность" style="endArrow=block;html=1;rounded=0;exitX=1;exitY=0.88;exitDx=0;exitDy=0;exitPerimeter=0;endFill=1;" parent="UwtVmJWAxAAU6NyaN8vT-10" edge="1">
          <mxGeometry width="50" height="50" relative="1" as="geometry">
            <mxPoint x="586" y="520" as="sourcePoint" />
            <mxPoint x="747" y="520" as="targetPoint" />
          </mxGeometry>
        </mxCell>
        <mxCell id="_nZTojiyE76JTHtSft5U-13" value="Максимальное&lt;br&gt;количество&lt;br&gt;экспертов" style="endArrow=block;html=1;rounded=0;entryX=0.105;entryY=0;entryDx=0;entryDy=0;endFill=1;entryPerimeter=0;" parent="UwtVmJWAxAAU6NyaN8vT-10" edge="1">
          <mxGeometry x="0.0072" width="50" height="50" relative="1" as="geometry">
            <mxPoint x="297.05" y="59" as="sourcePoint" />
            <mxPoint x="297.00000000000006" y="169" as="targetPoint" />
            <mxPoint x="-1" as="offset" />
          </mxGeometry>
        </mxCell>
        <mxCell id="_nZTojiyE76JTHtSft5U-14" value="Уровень&lt;br&gt;значимости" style="endArrow=block;html=1;rounded=0;entryX=0;entryY=0.25;entryDx=0;entryDy=0;endFill=1;labelBackgroundColor=none;" parent="UwtVmJWAxAAU6NyaN8vT-10" edge="1">
          <mxGeometry x="0.0072" width="50" height="50" relative="1" as="geometry">
            <mxPoint x="37" y="439" as="sourcePoint" />
            <mxPoint x="196" y="439" as="targetPoint" />
            <mxPoint x="-1" as="offset" />
          </mxGeometry>
        </mxCell>
        <mxCell id="UwtVmJWAxAAU6NyaN8vT-33" value="Программное&lt;br&gt;обеспечение" style="endArrow=block;html=1;rounded=0;entryX=0.5;entryY=1;entryDx=0;entryDy=0;endFill=1;" parent="UwtVmJWAxAAU6NyaN8vT-10" edge="1">
          <mxGeometry width="50" height="50" relative="1" as="geometry">
            <mxPoint x="391" y="641" as="sourcePoint" />
            <mxPoint x="391" y="531" as="targetPoint" />
          </mxGeometry>
        </mxCell>
        <mxCell id="_nZTojiyE76JTHtSft5U-6" value="&lt;font style=&quot;font-size: 16px;&quot;&gt;(&amp;nbsp; &amp;nbsp; &amp;nbsp;)&lt;/font&gt;" style="text;html=1;align=center;verticalAlign=middle;resizable=0;points=[];autosize=1;strokeColor=none;fillColor=none;" parent="UwtVmJWAxAAU6NyaN8vT-10" vertex="1">
          <mxGeometry x="360" y="515" width="60" height="30" as="geometry" />
        </mxCell>
        <mxCell id="Q9Z6t221oSEV2i7YVVHM-1" value="Количество&lt;br&gt;комбинаций" style="endArrow=block;html=1;rounded=0;entryX=0.105;entryY=0;entryDx=0;entryDy=0;endFill=1;entryPerimeter=0;" parent="UwtVmJWAxAAU6NyaN8vT-10" edge="1">
          <mxGeometry x="0.0909" width="50" height="50" relative="1" as="geometry">
            <mxPoint x="207" y="59" as="sourcePoint" />
            <mxPoint x="207" y="169" as="targetPoint" />
            <mxPoint as="offset" />
          </mxGeometry>
        </mxCell>
        <mxCell id="SbHf0pWlJhlHCsWusG1j-2" value="Допустимый&lt;br&gt;диапазон&lt;br&gt;согласованности" style="endArrow=block;html=1;rounded=0;entryX=0.105;entryY=0;entryDx=0;entryDy=0;endFill=1;entryPerimeter=0;" parent="UwtVmJWAxAAU6NyaN8vT-10" edge="1">
          <mxGeometry x="0.0078" y="-1" width="50" height="50" relative="1" as="geometry">
            <mxPoint x="566.05" y="59" as="sourcePoint" />
            <mxPoint x="566" y="169" as="targetPoint" />
            <mxPoint as="offset" />
          </mxGeometry>
        </mxCell>
        <mxCell id="Q9Z6t221oSEV2i7YVVHM-2" value="Заданная&lt;br&gt;точность" style="endArrow=block;html=1;rounded=0;entryX=0.105;entryY=0;entryDx=0;entryDy=0;endFill=1;entryPerimeter=0;" parent="UwtVmJWAxAAU6NyaN8vT-10" edge="1">
          <mxGeometry x="0.0078" y="-1" width="50" height="50" relative="1" as="geometry">
            <mxPoint x="477.04999999999995" y="59" as="sourcePoint" />
            <mxPoint x="477" y="169" as="targetPoint" />
            <mxPoint as="offset" />
          </mxGeometry>
        </mxCell>
        <mxCell id="SbHf0pWlJhlHCsWusG1j-5" value="Значение хи-квадрата&lt;br&gt;матриц" style="endArrow=block;html=1;rounded=0;exitX=1;exitY=0.5;exitDx=0;exitDy=0;endFill=1;labelBackgroundColor=none;" parent="UwtVmJWAxAAU6NyaN8vT-10" edge="1">
          <mxGeometry width="50" height="50" relative="1" as="geometry">
            <mxPoint x="586" y="279" as="sourcePoint" />
            <mxPoint x="747" y="280" as="targetPoint" />
          </mxGeometry>
        </mxCell>
        <mxCell id="SbHf0pWlJhlHCsWusG1j-3" value="Прочее" style="endArrow=block;html=1;rounded=0;exitX=1;exitY=0.5;exitDx=0;exitDy=0;endFill=1;labelBackgroundColor=default;" parent="UwtVmJWAxAAU6NyaN8vT-10" edge="1">
          <mxGeometry x="0.0024" width="50" height="50" relative="1" as="geometry">
            <mxPoint x="586" y="490" as="sourcePoint" />
            <mxPoint x="747" y="490" as="targetPoint" />
            <mxPoint as="offset" />
          </mxGeometry>
        </mxCell>
        <mxCell id="N3KC11bhhMYCx0dWHLYu-1" value="Оптимальные&lt;br&gt;весовые коэффициенты" style="endArrow=block;html=1;rounded=0;exitX=1;exitY=0.5;exitDx=0;exitDy=0;endFill=1;labelBackgroundColor=none;" parent="UwtVmJWAxAAU6NyaN8vT-10" edge="1">
          <mxGeometry x="0.0024" width="50" height="50" relative="1" as="geometry">
            <mxPoint x="586" y="460" as="sourcePoint" />
            <mxPoint x="747" y="460" as="targetPoint" />
            <mxPoint as="offset" />
          </mxGeometry>
        </mxCell>
        <mxCell id="UwtVmJWAxAAU6NyaN8vT-23" value="" style="group" parent="1" vertex="1" connectable="0">
          <mxGeometry x="219" y="190" width="390" height="370" as="geometry" />
        </mxCell>
        <mxCell id="UwtVmJWAxAAU6NyaN8vT-24" value="&lt;span style=&quot;font-size: 28px;&quot;&gt;Проверка весовых коэффициентов&lt;br&gt;&lt;/span&gt;" style="rounded=0;whiteSpace=wrap;html=1;" parent="UwtVmJWAxAAU6NyaN8vT-23" vertex="1">
          <mxGeometry width="390" height="360" as="geometry" />
        </mxCell>
        <mxCell id="UwtVmJWAxAAU6NyaN8vT-25" value="A0" style="text;html=1;strokeColor=none;fillColor=none;align=center;verticalAlign=middle;whiteSpace=wrap;rounded=0;" parent="UwtVmJWAxAAU6NyaN8vT-23" vertex="1">
          <mxGeometry x="360" y="329.0969827586206" width="30" height="29.9030172413793" as="geometry" />
        </mxCell>
        <mxCell id="UwtVmJWAxAAU6NyaN8vT-31" value="Весовые коэффициенты" style="endArrow=block;html=1;rounded=0;entryX=0;entryY=0.25;entryDx=0;entryDy=0;endFill=1;" parent="1" target="UwtVmJWAxAAU6NyaN8vT-24" edge="1">
          <mxGeometry x="0.0072" width="50" height="50" relative="1" as="geometry">
            <mxPoint x="60" y="280" as="sourcePoint" />
            <mxPoint x="219.0000000000001" y="252.5" as="targetPoint" />
            <mxPoint x="-1" as="offset" />
          </mxGeometry>
        </mxCell>
        <mxCell id="UwtVmJWAxAAU6NyaN8vT-28" value="Алгоритмы" style="endArrow=block;html=1;rounded=0;entryX=0.5;entryY=0;entryDx=0;entryDy=0;endFill=1;" parent="1" edge="1">
          <mxGeometry width="50" height="50" relative="1" as="geometry">
            <mxPoint x="413" y="80" as="sourcePoint" />
            <mxPoint x="414" y="190" as="targetPoint" />
          </mxGeometry>
        </mxCell>
        <mxCell id="SbHf0pWlJhlHCsWusG1j-4" value="Значение согласованности&lt;br&gt;матриц" style="endArrow=block;html=1;rounded=0;exitX=1;exitY=0.5;exitDx=0;exitDy=0;endFill=1;labelBackgroundColor=none;" parent="1" edge="1">
          <mxGeometry x="0.0023" width="50" height="50" relative="1" as="geometry">
            <mxPoint x="609" y="260" as="sourcePoint" />
            <mxPoint x="770" y="261" as="targetPoint" />
            <mxPoint as="offset" />
          </mxGeometry>
        </mxCell>
        <mxCell id="SbHf0pWlJhlHCsWusG1j-6" value="Значение значимости&lt;br&gt;матриц" style="endArrow=block;html=1;rounded=0;exitX=1;exitY=0.5;exitDx=0;exitDy=0;endFill=1;labelBackgroundColor=none;" parent="1" edge="1">
          <mxGeometry width="50" height="50" relative="1" as="geometry">
            <mxPoint x="609" y="330" as="sourcePoint" />
            <mxPoint x="770" y="331" as="targetPoint" />
          </mxGeometry>
        </mxCell>
        <mxCell id="SbHf0pWlJhlHCsWusG1j-8" value="Весовые коэффициенты&lt;br&gt;матриц" style="endArrow=block;html=1;rounded=0;exitX=1;exitY=0.5;exitDx=0;exitDy=0;endFill=1;labelBackgroundColor=none;" parent="1" edge="1">
          <mxGeometry x="0.0009" width="50" height="50" relative="1" as="geometry">
            <mxPoint x="609" y="360" as="sourcePoint" />
            <mxPoint x="770" y="361" as="targetPoint" />
            <mxPoint as="offset" />
          </mxGeometry>
        </mxCell>
        <mxCell id="SbHf0pWlJhlHCsWusG1j-9" value="Точность расчёта" style="endArrow=block;html=1;rounded=0;exitX=1;exitY=0.5;exitDx=0;exitDy=0;endFill=1;labelBackgroundColor=default;" parent="1" edge="1">
          <mxGeometry x="0.0009" width="50" height="50" relative="1" as="geometry">
            <mxPoint x="609" y="390" as="sourcePoint" />
            <mxPoint x="770" y="391" as="targetPoint" />
            <mxPoint as="offset" />
          </mxGeometry>
        </mxCell>
        <mxCell id="SbHf0pWlJhlHCsWusG1j-10" value="Количество экспертов" style="endArrow=block;html=1;rounded=0;exitX=1;exitY=0.5;exitDx=0;exitDy=0;endFill=1;labelBackgroundColor=default;" parent="1" edge="1">
          <mxGeometry x="0.0009" width="50" height="50" relative="1" as="geometry">
            <mxPoint x="609" y="421" as="sourcePoint" />
            <mxPoint x="770" y="422" as="targetPoint" />
            <mxPoint as="offset" />
          </mxGeometry>
        </mxCell>
        <mxCell id="SbHf0pWlJhlHCsWusG1j-11" value="Ранжирование матриц" style="endArrow=block;html=1;rounded=0;exitX=1;exitY=0.5;exitDx=0;exitDy=0;endFill=1;labelBackgroundColor=default;" parent="1" edge="1">
          <mxGeometry x="0.0009" width="50" height="50" relative="1" as="geometry">
            <mxPoint x="609" y="450" as="sourcePoint" />
            <mxPoint x="770" y="451" as="targetPoint" />
            <mxPoint as="offset" />
          </mxGeometry>
        </mxCell>
      </root>
    </mxGraphModel>
  </diagram>
  <diagram id="uLG6Z2e0YkIsBCWtMbWG" name="А0">
    <mxGraphModel dx="1147" dy="632" grid="0" gridSize="10" guides="1" tooltips="1" connect="1" arrows="1" fold="1" page="1" pageScale="1" pageWidth="1169" pageHeight="827" background="none" math="0" shadow="0">
      <root>
        <mxCell id="0" />
        <mxCell id="1" parent="0" />
        <mxCell id="F-KDv2YsbYm4zEEXJvgU-2" value="" style="endArrow=block;html=1;rounded=0;endFill=1;exitX=1;exitY=0.08;exitDx=0;exitDy=0;exitPerimeter=0;strokeColor=#b85450;labelBackgroundColor=default;fillColor=#f8cecc;fontSize=10;" parent="1" edge="1">
          <mxGeometry x="-0.5" y="-45" width="50" height="50" relative="1" as="geometry">
            <mxPoint x="480" y="375" as="sourcePoint" />
            <mxPoint x="920" y="375" as="targetPoint" />
            <mxPoint as="offset" />
          </mxGeometry>
        </mxCell>
        <mxCell id="SuHji1JUfY4mNwCukmQ_-9" value="Ранжировка матриц" style="endArrow=block;html=1;rounded=0;exitX=1.003;exitY=0.371;exitDx=0;exitDy=0;exitPerimeter=0;fontSize=10;endFill=1;strokeColor=#FF0080;" parent="1" edge="1">
          <mxGeometry width="50" height="50" relative="1" as="geometry">
            <mxPoint x="680" y="536.76" as="sourcePoint" />
            <mxPoint x="920" y="536.76" as="targetPoint" />
          </mxGeometry>
        </mxCell>
        <mxCell id="SuHji1JUfY4mNwCukmQ_-10" value="Оптимальные весовые коэффициенты" style="endArrow=block;html=1;rounded=0;exitX=1.003;exitY=0.371;exitDx=0;exitDy=0;exitPerimeter=0;fontSize=10;endFill=1;strokeColor=#00CC00;" parent="1" edge="1">
          <mxGeometry width="50" height="50" relative="1" as="geometry">
            <mxPoint x="680" y="549.76" as="sourcePoint" />
            <mxPoint x="920" y="549.76" as="targetPoint" />
          </mxGeometry>
        </mxCell>
        <mxCell id="F-KDv2YsbYm4zEEXJvgU-4" value="Весовые коэффициенты&lt;br style=&quot;font-size: 10px;&quot;&gt;матриц" style="endArrow=block;html=1;rounded=0;endFill=1;exitX=1;exitY=0.08;exitDx=0;exitDy=0;exitPerimeter=0;strokeColor=#6600CC;labelBackgroundColor=default;fillColor=#f8cecc;fontSize=10;" parent="1" edge="1">
          <mxGeometry x="-1" y="-71" width="50" height="50" relative="1" as="geometry">
            <mxPoint x="480" y="393" as="sourcePoint" />
            <mxPoint x="920" y="393" as="targetPoint" />
            <mxPoint x="-59" y="-32" as="offset" />
          </mxGeometry>
        </mxCell>
        <mxCell id="VD741ZMysFTanJr_S810-2" value="Значение согласованности&lt;br style=&quot;border-color: var(--border-color); font-size: 10px;&quot;&gt;&lt;span style=&quot;font-size: 10px;&quot;&gt;матриц&lt;/span&gt;" style="endArrow=block;html=1;rounded=0;endFill=1;exitX=1;exitY=0.08;exitDx=0;exitDy=0;exitPerimeter=0;strokeColor=#999900;labelBackgroundColor=none;fontSize=10;" parent="1" edge="1">
          <mxGeometry x="-0.6182" width="50" height="50" relative="1" as="geometry">
            <mxPoint x="480" y="339.79999999999995" as="sourcePoint" />
            <mxPoint x="920" y="340" as="targetPoint" />
            <mxPoint as="offset" />
          </mxGeometry>
        </mxCell>
        <mxCell id="aFnh8GW0OJa8cc7-wk0_-7" value="" style="endArrow=block;html=1;rounded=0;exitX=1.004;exitY=0.16;exitDx=0;exitDy=0;exitPerimeter=0;endFill=1;strokeColor=#00FFFF;fontSize=10;" parent="1" edge="1">
          <mxGeometry x="-1" y="-43" width="50" height="50" relative="1" as="geometry">
            <mxPoint x="280.48" y="196.60000000000014" as="sourcePoint" />
            <mxPoint x="920" y="197" as="targetPoint" />
            <mxPoint as="offset" />
          </mxGeometry>
        </mxCell>
        <mxCell id="aFnh8GW0OJa8cc7-wk0_-8" value="Длительность обработки" style="endArrow=block;html=1;rounded=0;exitX=1.004;exitY=0.16;exitDx=0;exitDy=0;exitPerimeter=0;endFill=1;strokeColor=#9AC7BF;jumpStyle=gap;fontSize=10;" parent="1" edge="1">
          <mxGeometry x="-0.2197" width="50" height="50" relative="1" as="geometry">
            <mxPoint x="280.48" y="214.60000000000014" as="sourcePoint" />
            <mxPoint x="920" y="215" as="targetPoint" />
            <mxPoint as="offset" />
          </mxGeometry>
        </mxCell>
        <mxCell id="aFnh8GW0OJa8cc7-wk0_-9" value="Прочее" style="endArrow=block;html=1;rounded=0;exitX=1.004;exitY=0.16;exitDx=0;exitDy=0;exitPerimeter=0;endFill=1;strokeColor=#FFCE9F;fontSize=10;" parent="1" edge="1">
          <mxGeometry x="-0.8608" width="50" height="50" relative="1" as="geometry">
            <mxPoint x="280.48" y="180.60000000000014" as="sourcePoint" />
            <mxPoint x="920" y="181" as="targetPoint" />
            <mxPoint as="offset" />
          </mxGeometry>
        </mxCell>
        <mxCell id="4u0ujeywtucYIl0Goh5u-2" value="Весовые&lt;br style=&quot;font-size: 10px;&quot;&gt;коэффициенты" style="endArrow=block;html=1;rounded=0;entryX=-0.001;entryY=0.158;entryDx=0;entryDy=0;entryPerimeter=0;endFill=1;labelBackgroundColor=none;strokeColor=#FF00FF;fontSize=10;" parent="1" target="5ahT-SYsGyvmFBpI2IyX-2" edge="1">
          <mxGeometry x="-0.3327" width="50" height="50" relative="1" as="geometry">
            <mxPoint x="40" y="170" as="sourcePoint" />
            <mxPoint x="310" y="190" as="targetPoint" />
            <mxPoint as="offset" />
          </mxGeometry>
        </mxCell>
        <mxCell id="743_yrjDaTubIG02njix-1" value="" style="swimlane;direction=west;fillColor=none;swimlaneFillColor=none;shadow=0;swimlaneLine=1;fontSize=10;" parent="1" vertex="1">
          <mxGeometry x="23" y="20" width="917" height="575" as="geometry">
            <mxRectangle x="23" y="21" width="50" height="40" as="alternateBounds" />
          </mxGeometry>
        </mxCell>
        <mxCell id="swCZicpM5G-BZDFf6zmv-6" value="Неудовлетворительный&lt;br style=&quot;font-size: 10px;&quot;&gt;результат" style="endArrow=classic;html=1;rounded=1;exitX=1;exitY=0.122;exitDx=0;exitDy=0;exitPerimeter=0;entryX=0;entryY=0.75;entryDx=0;entryDy=0;jumpStyle=gap;strokeColor=#333333;fontSize=10;" parent="743_yrjDaTubIG02njix-1" source="swCZicpM5G-BZDFf6zmv-2" target="aFnh8GW0OJa8cc7-wk0_-2" edge="1">
          <mxGeometry x="-0.7566" width="50" height="50" relative="1" as="geometry">
            <mxPoint x="657" y="470" as="sourcePoint" />
            <mxPoint x="597" y="350" as="targetPoint" />
            <Array as="points">
              <mxPoint x="707" y="470" />
              <mxPoint x="707" y="260" />
              <mxPoint x="287" y="260" />
              <mxPoint x="287" y="360" />
            </Array>
            <mxPoint as="offset" />
          </mxGeometry>
        </mxCell>
        <mxCell id="aFnh8GW0OJa8cc7-wk0_-11" value="" style="endArrow=block;html=1;rounded=1;exitX=1.004;exitY=0.61;exitDx=0;exitDy=0;exitPerimeter=0;edgeStyle=orthogonalEdgeStyle;strokeColor=#00FFFF;entryX=0;entryY=0.25;entryDx=0;entryDy=0;endFill=1;jumpStyle=gap;fontSize=10;" parent="743_yrjDaTubIG02njix-1" source="5ahT-SYsGyvmFBpI2IyX-2" target="aFnh8GW0OJa8cc7-wk0_-2" edge="1">
          <mxGeometry width="50" height="50" relative="1" as="geometry">
            <mxPoint x="256.99999999999994" y="176.42" as="sourcePoint" />
            <mxPoint x="296.51" y="220" as="targetPoint" />
          </mxGeometry>
        </mxCell>
        <mxCell id="F-KDv2YsbYm4zEEXJvgU-3" value="Длительность&lt;br style=&quot;font-size: 10px;&quot;&gt;расчёта" style="endArrow=block;html=1;rounded=1;endFill=1;exitX=1;exitY=0.08;exitDx=0;exitDy=0;exitPerimeter=0;strokeColor=#9ac7bf;labelBackgroundColor=none;edgeStyle=elbowEdgeStyle;jumpStyle=none;fontSize=10;" parent="743_yrjDaTubIG02njix-1" edge="1">
          <mxGeometry x="-0.8179" y="14" width="50" height="50" relative="1" as="geometry">
            <mxPoint x="457" y="303.99999999999994" as="sourcePoint" />
            <mxPoint x="897" y="195" as="targetPoint" />
            <mxPoint as="offset" />
            <Array as="points">
              <mxPoint x="774" y="255" />
            </Array>
          </mxGeometry>
        </mxCell>
        <mxCell id="F-KDv2YsbYm4zEEXJvgU-1" value="Хи-квадрат&lt;br style=&quot;font-size: 10px;&quot;&gt;матриц" style="endArrow=block;html=1;rounded=0;endFill=1;exitX=1;exitY=0.08;exitDx=0;exitDy=0;exitPerimeter=0;strokeColor=#FFB570;labelBackgroundColor=none;fontSize=10;" parent="743_yrjDaTubIG02njix-1" edge="1">
          <mxGeometry x="-0.8545" width="50" height="50" relative="1" as="geometry">
            <mxPoint x="457" y="339" as="sourcePoint" />
            <mxPoint x="897" y="339" as="targetPoint" />
            <mxPoint as="offset" />
          </mxGeometry>
        </mxCell>
        <mxCell id="SuHji1JUfY4mNwCukmQ_-2" value="" style="endArrow=block;html=1;rounded=1;endFill=1;strokeColor=#FFB570;labelBackgroundColor=default;entryX=0;entryY=0.25;entryDx=0;entryDy=0;edgeStyle=orthogonalEdgeStyle;jumpStyle=gap;fontSize=10;" parent="743_yrjDaTubIG02njix-1" target="swCZicpM5G-BZDFf6zmv-2" edge="1">
          <mxGeometry x="-0.7674" width="50" height="50" relative="1" as="geometry">
            <mxPoint x="457" y="339" as="sourcePoint" />
            <mxPoint x="907" y="349" as="targetPoint" />
            <mxPoint as="offset" />
            <Array as="points">
              <mxPoint x="510" y="339" />
              <mxPoint x="510" y="480" />
            </Array>
          </mxGeometry>
        </mxCell>
        <mxCell id="cpRvrm9ey4uUoWMbJDzQ-1" value="Уровень&lt;br style=&quot;font-size: 10px;&quot;&gt;значимости" style="endArrow=block;html=1;rounded=0;entryX=-0.001;entryY=0.158;entryDx=0;entryDy=0;entryPerimeter=0;endFill=1;labelBackgroundColor=none;strokeColor=#00FF00;fontSize=10;" parent="743_yrjDaTubIG02njix-1" edge="1">
          <mxGeometry x="-0.3333" width="50" height="50" relative="1" as="geometry">
            <mxPoint x="17" y="190" as="sourcePoint" />
            <mxPoint x="137" y="190" as="targetPoint" />
            <mxPoint as="offset" />
          </mxGeometry>
        </mxCell>
        <mxCell id="swCZicpM5G-BZDFf6zmv-4" value="" style="endArrow=block;html=1;rounded=1;entryX=-0.003;entryY=0.93;entryDx=0;entryDy=0;endFill=1;labelBackgroundColor=none;strokeColor=#FF00FF;edgeStyle=elbowEdgeStyle;jumpStyle=gap;entryPerimeter=0;fontSize=10;" parent="743_yrjDaTubIG02njix-1" target="swCZicpM5G-BZDFf6zmv-2" edge="1">
          <mxGeometry width="50" height="50" relative="1" as="geometry">
            <mxPoint x="17" y="150" as="sourcePoint" />
            <mxPoint x="537" y="499" as="targetPoint" />
            <Array as="points">
              <mxPoint x="107" y="330" />
            </Array>
          </mxGeometry>
        </mxCell>
        <mxCell id="5ahT-SYsGyvmFBpI2IyX-1" value="" style="group;fontSize=10;" parent="743_yrjDaTubIG02njix-1" vertex="1" connectable="0">
          <mxGeometry x="137" y="140" width="120" height="60" as="geometry" />
        </mxCell>
        <mxCell id="5ahT-SYsGyvmFBpI2IyX-2" value="Обработка входных данных" style="rounded=0;whiteSpace=wrap;html=1;fontSize=10;" parent="5ahT-SYsGyvmFBpI2IyX-1" vertex="1">
          <mxGeometry width="120" height="60" as="geometry" />
        </mxCell>
        <mxCell id="5ahT-SYsGyvmFBpI2IyX-3" value="&lt;font style=&quot;font-size: 12px;&quot;&gt;А1&lt;/font&gt;" style="text;html=1;strokeColor=none;fillColor=none;align=center;verticalAlign=middle;whiteSpace=wrap;rounded=0;fontSize=10;" parent="5ahT-SYsGyvmFBpI2IyX-1" vertex="1">
          <mxGeometry x="98" y="44" width="22" height="16" as="geometry" />
        </mxCell>
        <mxCell id="743_yrjDaTubIG02njix-2" value="ВЕТКА: А0" style="text;html=1;strokeColor=default;fillColor=none;align=left;verticalAlign=middle;whiteSpace=wrap;rounded=0;glass=0;fontSize=12;" parent="743_yrjDaTubIG02njix-1" vertex="1">
          <mxGeometry y="552" width="80" height="23" as="geometry" />
        </mxCell>
        <mxCell id="743_yrjDaTubIG02njix-3" value="НОМЕР: 2" style="text;html=1;strokeColor=default;fillColor=none;align=left;verticalAlign=middle;whiteSpace=wrap;rounded=0;glass=0;fontSize=12;" parent="743_yrjDaTubIG02njix-1" vertex="1">
          <mxGeometry x="837" y="552" width="80" height="23" as="geometry" />
        </mxCell>
        <mxCell id="743_yrjDaTubIG02njix-4" value="ЗАГОЛОВОК:&amp;nbsp;" style="text;html=1;strokeColor=none;fillColor=none;align=left;verticalAlign=middle;whiteSpace=wrap;rounded=0;glass=0;fontSize=12;" parent="743_yrjDaTubIG02njix-1" vertex="1">
          <mxGeometry x="80" y="552" width="80" height="23" as="geometry" />
        </mxCell>
        <mxCell id="743_yrjDaTubIG02njix-5" value="А-0 Проверка весовых коэффициентов" style="text;html=1;strokeColor=none;fillColor=none;align=center;verticalAlign=middle;whiteSpace=wrap;rounded=0;glass=0;fontSize=12;" parent="743_yrjDaTubIG02njix-1" vertex="1">
          <mxGeometry x="80" y="552" width="756" height="23" as="geometry" />
        </mxCell>
        <mxCell id="4u0ujeywtucYIl0Goh5u-1" value="Количество&lt;br style=&quot;font-size: 10px;&quot;&gt;комбинаций" style="endArrow=block;html=1;rounded=0;strokeColor=#2200FF;entryX=0.5;entryY=0;entryDx=0;entryDy=0;endFill=1;fontSize=10;" parent="743_yrjDaTubIG02njix-1" target="5ahT-SYsGyvmFBpI2IyX-2" edge="1">
          <mxGeometry width="50" height="50" relative="1" as="geometry">
            <mxPoint x="197" y="30" as="sourcePoint" />
            <mxPoint x="407" y="190" as="targetPoint" />
          </mxGeometry>
        </mxCell>
        <mxCell id="swCZicpM5G-BZDFf6zmv-11" value="Длительность&lt;br style=&quot;font-size: 10px;&quot;&gt;проверки" style="edgeStyle=orthogonalEdgeStyle;rounded=1;orthogonalLoop=1;jettySize=auto;html=1;exitX=1;exitY=0.25;exitDx=0;exitDy=0;endArrow=block;endFill=1;strokeColor=#9ac7bf;jumpStyle=gap;fontSize=10;" parent="743_yrjDaTubIG02njix-1" source="swCZicpM5G-BZDFf6zmv-2" edge="1">
          <mxGeometry x="-0.4438" relative="1" as="geometry">
            <mxPoint x="897" y="195" as="targetPoint" />
            <Array as="points">
              <mxPoint x="774" y="480" />
              <mxPoint x="774" y="195" />
            </Array>
            <mxPoint as="offset" />
          </mxGeometry>
        </mxCell>
        <mxCell id="aFnh8GW0OJa8cc7-wk0_-1" value="" style="group;fontSize=10;" parent="743_yrjDaTubIG02njix-1" vertex="1" connectable="0">
          <mxGeometry x="337" y="300" width="120" height="80" as="geometry" />
        </mxCell>
        <mxCell id="aFnh8GW0OJa8cc7-wk0_-2" value="Расчёт количества экспертов" style="rounded=0;whiteSpace=wrap;html=1;fontSize=10;" parent="aFnh8GW0OJa8cc7-wk0_-1" vertex="1">
          <mxGeometry width="120" height="80" as="geometry" />
        </mxCell>
        <mxCell id="aFnh8GW0OJa8cc7-wk0_-3" value="&lt;font style=&quot;font-size: 12px;&quot;&gt;А2&lt;/font&gt;" style="text;html=1;strokeColor=none;fillColor=none;align=center;verticalAlign=middle;whiteSpace=wrap;rounded=0;fontSize=10;" parent="aFnh8GW0OJa8cc7-wk0_-1" vertex="1">
          <mxGeometry x="98" y="63" width="22" height="17" as="geometry" />
        </mxCell>
        <mxCell id="SuHji1JUfY4mNwCukmQ_-3" value="" style="endArrow=block;html=1;rounded=1;endFill=1;exitX=1.003;exitY=0.687;exitDx=0;exitDy=0;exitPerimeter=0;strokeColor=#b85450;labelBackgroundColor=default;fillColor=#f8cecc;entryX=0;entryY=0.5;entryDx=0;entryDy=0;edgeStyle=orthogonalEdgeStyle;jumpStyle=gap;fontSize=10;" parent="743_yrjDaTubIG02njix-1" source="aFnh8GW0OJa8cc7-wk0_-2" target="swCZicpM5G-BZDFf6zmv-2" edge="1">
          <mxGeometry x="-0.6382" y="7" width="50" height="50" relative="1" as="geometry">
            <mxPoint x="467" y="365" as="sourcePoint" />
            <mxPoint x="907" y="365" as="targetPoint" />
            <mxPoint y="-1" as="offset" />
            <Array as="points">
              <mxPoint x="498" y="355" />
              <mxPoint x="498" y="500" />
            </Array>
          </mxGeometry>
        </mxCell>
        <mxCell id="SuHji1JUfY4mNwCukmQ_-4" value="" style="endArrow=block;html=1;rounded=1;endFill=1;exitX=1.011;exitY=0.651;exitDx=0;exitDy=0;exitPerimeter=0;strokeColor=#6600CC;labelBackgroundColor=default;fillColor=#f8cecc;entryX=0;entryY=0.75;entryDx=0;entryDy=0;edgeStyle=orthogonalEdgeStyle;fontSize=10;" parent="743_yrjDaTubIG02njix-1" source="aFnh8GW0OJa8cc7-wk0_-3" target="swCZicpM5G-BZDFf6zmv-2" edge="1">
          <mxGeometry x="-0.5909" width="50" height="50" relative="1" as="geometry">
            <mxPoint x="467" y="383" as="sourcePoint" />
            <mxPoint x="907" y="383" as="targetPoint" />
            <mxPoint as="offset" />
            <Array as="points">
              <mxPoint x="479" y="373" />
              <mxPoint x="479" y="520" />
            </Array>
          </mxGeometry>
        </mxCell>
        <mxCell id="SuHji1JUfY4mNwCukmQ_-1" value="" style="endArrow=classic;html=1;rounded=1;exitX=1.003;exitY=0.248;exitDx=0;exitDy=0;entryX=-0.003;entryY=0.054;entryDx=0;entryDy=0;entryPerimeter=0;edgeStyle=orthogonalEdgeStyle;exitPerimeter=0;strokeColor=#999900;jumpStyle=gap;fontSize=10;" parent="743_yrjDaTubIG02njix-1" source="aFnh8GW0OJa8cc7-wk0_-2" target="swCZicpM5G-BZDFf6zmv-2" edge="1">
          <mxGeometry width="50" height="50" relative="1" as="geometry">
            <mxPoint x="564" y="424" as="sourcePoint" />
            <mxPoint x="614" y="374" as="targetPoint" />
            <Array as="points">
              <mxPoint x="523" y="320" />
              <mxPoint x="523" y="464" />
            </Array>
          </mxGeometry>
        </mxCell>
        <mxCell id="SuHji1JUfY4mNwCukmQ_-8" value="Количество экспертов" style="endArrow=block;html=1;rounded=0;exitX=1.003;exitY=0.371;exitDx=0;exitDy=0;exitPerimeter=0;fontSize=10;endFill=1;strokeColor=#CC99FF;" parent="743_yrjDaTubIG02njix-1" edge="1">
          <mxGeometry width="50" height="50" relative="1" as="geometry">
            <mxPoint x="657" y="503.76" as="sourcePoint" />
            <mxPoint x="897" y="503.76" as="targetPoint" />
          </mxGeometry>
        </mxCell>
        <mxCell id="aFnh8GW0OJa8cc7-wk0_-12" value="" style="endArrow=block;html=1;rounded=1;exitX=1.004;exitY=0.077;exitDx=0;exitDy=0;exitPerimeter=0;edgeStyle=orthogonalEdgeStyle;strokeColor=#660033;jumpStyle=gap;entryX=0.338;entryY=-0.003;entryDx=0;entryDy=0;endFill=1;fontSize=10;entryPerimeter=0;" parent="743_yrjDaTubIG02njix-1" source="5ahT-SYsGyvmFBpI2IyX-2" target="swCZicpM5G-BZDFf6zmv-2" edge="1">
          <mxGeometry width="50" height="50" relative="1" as="geometry">
            <mxPoint x="257" y="144.62000000000006" as="sourcePoint" />
            <mxPoint x="398" y="300" as="targetPoint" />
            <Array as="points">
              <mxPoint x="578" y="145" />
            </Array>
          </mxGeometry>
        </mxCell>
        <mxCell id="SuHji1JUfY4mNwCukmQ_-13" value="" style="rounded=0;whiteSpace=wrap;html=1;fillColor=default;strokeColor=none;" parent="743_yrjDaTubIG02njix-1" vertex="1">
          <mxGeometry x="294" y="247" width="6" height="6" as="geometry" />
        </mxCell>
        <mxCell id="SuHji1JUfY4mNwCukmQ_-14" value="" style="endArrow=none;html=1;rounded=0;entryX=1;entryY=0.5;entryDx=0;entryDy=0;strokeColor=#00ff00;exitX=0;exitY=0.5;exitDx=0;exitDy=0;" parent="743_yrjDaTubIG02njix-1" source="SuHji1JUfY4mNwCukmQ_-13" target="SuHji1JUfY4mNwCukmQ_-13" edge="1">
          <mxGeometry width="50" height="50" relative="1" as="geometry">
            <mxPoint x="294" y="250" as="sourcePoint" />
            <mxPoint x="299" y="250" as="targetPoint" />
          </mxGeometry>
        </mxCell>
        <mxCell id="swCZicpM5G-BZDFf6zmv-9" value="Длительность" style="text;html=1;align=center;verticalAlign=middle;resizable=0;points=[];autosize=1;strokeColor=none;fillColor=none;fontSize=10;labelBackgroundColor=default;" parent="743_yrjDaTubIG02njix-1" vertex="1">
          <mxGeometry x="786" y="179" width="90" height="30" as="geometry" />
        </mxCell>
        <mxCell id="myjEKPWiFId4UAK0u5nU-1" value="Заданная&lt;br&gt;точность" style="endArrow=block;html=1;rounded=0;entryX=0.582;entryY=-0.001;entryDx=0;entryDy=0;strokeColor=#C40606;jumpStyle=gap;endFill=1;fontSize=10;entryPerimeter=0;" parent="743_yrjDaTubIG02njix-1" edge="1">
          <mxGeometry x="-0.7037" width="50" height="50" relative="1" as="geometry">
            <mxPoint x="621" y="30" as="sourcePoint" />
            <mxPoint x="620.8400000000001" y="459.9200000000001" as="targetPoint" />
            <mxPoint as="offset" />
          </mxGeometry>
        </mxCell>
        <mxCell id="swCZicpM5G-BZDFf6zmv-1" value="" style="group;fontSize=10;" parent="743_yrjDaTubIG02njix-1" vertex="1" connectable="0">
          <mxGeometry x="537" y="460" width="120" height="80" as="geometry" />
        </mxCell>
        <mxCell id="swCZicpM5G-BZDFf6zmv-2" value="Проверка допустимости решения" style="rounded=0;whiteSpace=wrap;html=1;fontSize=10;" parent="swCZicpM5G-BZDFf6zmv-1" vertex="1">
          <mxGeometry width="120" height="80" as="geometry" />
        </mxCell>
        <mxCell id="swCZicpM5G-BZDFf6zmv-3" value="&lt;font style=&quot;font-size: 12px;&quot;&gt;А3&lt;/font&gt;" style="text;html=1;strokeColor=none;fillColor=none;align=center;verticalAlign=middle;whiteSpace=wrap;rounded=0;fontSize=10;" parent="swCZicpM5G-BZDFf6zmv-1" vertex="1">
          <mxGeometry x="98" y="63" width="22" height="17" as="geometry" />
        </mxCell>
        <mxCell id="aFnh8GW0OJa8cc7-wk0_-5" value="" style="endArrow=block;html=1;rounded=1;entryX=0.119;entryY=0.002;entryDx=0;entryDy=0;edgeStyle=orthogonalEdgeStyle;strokeColor=#00FF00;jumpStyle=gap;endFill=1;fontSize=10;entryPerimeter=0;" parent="1" target="swCZicpM5G-BZDFf6zmv-2" edge="1">
          <mxGeometry width="50" height="50" relative="1" as="geometry">
            <mxPoint x="40" y="210" as="sourcePoint" />
            <mxPoint x="370" y="230" as="targetPoint" />
            <Array as="points">
              <mxPoint x="140" y="210" />
              <mxPoint x="140" y="270" />
              <mxPoint x="574" y="270" />
            </Array>
          </mxGeometry>
        </mxCell>
        <mxCell id="aFnh8GW0OJa8cc7-wk0_-13" value="Матрица из&lt;br style=&quot;font-size: 10px;&quot;&gt;комбинаций рангов" style="edgeStyle=isometricEdgeStyle;endArrow=none;html=1;elbow=vertical;rounded=0;strokeColor=#00FFFF;fontSize=10;" parent="1" edge="1">
          <mxGeometry x="-0.641" y="-10" width="50" height="100" relative="1" as="geometry">
            <mxPoint x="280" y="240" as="sourcePoint" />
            <mxPoint x="301" y="196.5" as="targetPoint" />
            <mxPoint x="-11" y="-1" as="offset" />
          </mxGeometry>
        </mxCell>
        <mxCell id="SuHji1JUfY4mNwCukmQ_-6" value="Значение&lt;br style=&quot;border-color: var(--border-color);&quot;&gt;значимости&lt;br style=&quot;border-color: var(--border-color);&quot;&gt;матриц" style="edgeStyle=isometricEdgeStyle;endArrow=none;html=1;rounded=0;elbow=vertical;strokeColor=#b85450;fontSize=10;" parent="1" edge="1">
          <mxGeometry x="-0.8059" y="1" width="50" height="100" relative="1" as="geometry">
            <mxPoint x="460" y="490" as="sourcePoint" />
            <mxPoint x="498" y="375" as="targetPoint" />
            <mxPoint as="offset" />
          </mxGeometry>
        </mxCell>
        <mxCell id="swCZicpM5G-BZDFf6zmv-12" value="" style="endArrow=none;html=1;rounded=0;strokeColor=#9ac7bf;fontSize=10;" parent="1" edge="1">
          <mxGeometry width="50" height="50" relative="1" as="geometry">
            <mxPoint x="797" y="329" as="sourcePoint" />
            <mxPoint x="797" y="305" as="targetPoint" />
          </mxGeometry>
        </mxCell>
        <mxCell id="SuHji1JUfY4mNwCukmQ_-5" value="" style="edgeStyle=isometricEdgeStyle;endArrow=none;html=1;elbow=vertical;rounded=0;strokeColor=#6600cc;fontSize=10;" parent="1" edge="1">
          <mxGeometry width="50" height="100" relative="1" as="geometry">
            <mxPoint x="453" y="421" as="sourcePoint" />
            <mxPoint x="490" y="393" as="targetPoint" />
          </mxGeometry>
        </mxCell>
        <mxCell id="SuHji1JUfY4mNwCukmQ_-7" value="Точность расчёта" style="endArrow=block;html=1;rounded=0;exitX=1.003;exitY=0.371;exitDx=0;exitDy=0;exitPerimeter=0;fontSize=10;endFill=1;strokeColor=#007FFF;" parent="1" source="swCZicpM5G-BZDFf6zmv-2" edge="1">
          <mxGeometry width="50" height="50" relative="1" as="geometry">
            <mxPoint x="646" y="530" as="sourcePoint" />
            <mxPoint x="920" y="510" as="targetPoint" />
          </mxGeometry>
        </mxCell>
        <mxCell id="aFnh8GW0OJa8cc7-wk0_-15" value="Максимальное&lt;br style=&quot;font-size: 10px;&quot;&gt;количество&lt;br style=&quot;font-size: 10px;&quot;&gt;экспертов" style="endArrow=block;html=1;rounded=0;entryX=0.5;entryY=0;entryDx=0;entryDy=0;strokeColor=#99004D;jumpStyle=gap;endFill=1;fontSize=10;" parent="1" target="aFnh8GW0OJa8cc7-wk0_-2" edge="1">
          <mxGeometry x="-0.7037" width="50" height="50" relative="1" as="geometry">
            <mxPoint x="420" y="50" as="sourcePoint" />
            <mxPoint x="444" y="186" as="targetPoint" />
            <mxPoint as="offset" />
          </mxGeometry>
        </mxCell>
        <mxCell id="SuHji1JUfY4mNwCukmQ_-15" value="" style="rounded=0;whiteSpace=wrap;html=1;fillColor=default;strokeColor=none;" parent="1" vertex="1">
          <mxGeometry x="727" y="321" width="6" height="6" as="geometry" />
        </mxCell>
        <mxCell id="SuHji1JUfY4mNwCukmQ_-16" value="" style="endArrow=none;html=1;rounded=0;entryX=1;entryY=0.5;entryDx=0;entryDy=0;strokeColor=#9ac7bf;exitX=0;exitY=0.5;exitDx=0;exitDy=0;" parent="1" source="SuHji1JUfY4mNwCukmQ_-15" target="SuHji1JUfY4mNwCukmQ_-15" edge="1">
          <mxGeometry width="50" height="50" relative="1" as="geometry">
            <mxPoint x="727" y="324" as="sourcePoint" />
            <mxPoint x="732" y="324" as="targetPoint" />
          </mxGeometry>
        </mxCell>
        <mxCell id="TsbKuPcypvL2_fGO2CIv-1" value="" style="rounded=0;whiteSpace=wrap;html=1;fillColor=default;strokeColor=none;" parent="1" vertex="1">
          <mxGeometry x="667" y="161.82" width="6" height="6" as="geometry" />
        </mxCell>
        <mxCell id="TsbKuPcypvL2_fGO2CIv-2" value="" style="endArrow=none;html=1;rounded=0;entryX=1;entryY=0.5;entryDx=0;entryDy=0;strokeColor=#660033;exitX=0;exitY=0.5;exitDx=0;exitDy=0;" parent="1" source="TsbKuPcypvL2_fGO2CIv-1" target="TsbKuPcypvL2_fGO2CIv-1" edge="1">
          <mxGeometry width="50" height="50" relative="1" as="geometry">
            <mxPoint x="628" y="165" as="sourcePoint" />
            <mxPoint x="633" y="165" as="targetPoint" />
          </mxGeometry>
        </mxCell>
        <mxCell id="TsbKuPcypvL2_fGO2CIv-3" value="" style="endArrow=block;html=1;rounded=0;entryX=0.582;entryY=-0.001;entryDx=0;entryDy=0;strokeColor=#96cc5c;jumpStyle=gap;endFill=1;fontSize=10;entryPerimeter=0;" parent="1" edge="1">
          <mxGeometry x="-0.8605" y="60" width="50" height="50" relative="1" as="geometry">
            <mxPoint x="670" y="50" as="sourcePoint" />
            <mxPoint x="670" y="480" as="targetPoint" />
            <mxPoint as="offset" />
          </mxGeometry>
        </mxCell>
        <mxCell id="icGptEm0jieCShI3OMM5-2" value="Допустимый&lt;br style=&quot;border-color: var(--border-color); font-size: 10px;&quot;&gt;&lt;span style=&quot;font-size: 10px;&quot;&gt;диапазон&lt;/span&gt;&lt;br style=&quot;border-color: var(--border-color); font-size: 10px;&quot;&gt;&lt;span style=&quot;font-size: 10px;&quot;&gt;согласованности&lt;/span&gt;" style="edgeStyle=isometricEdgeStyle;endArrow=none;html=1;rounded=0;strokeColor=#96cc5c;fontSize=10;" parent="1" edge="1">
          <mxGeometry x="1" y="10" width="50" height="100" relative="1" as="geometry">
            <mxPoint x="670" y="130" as="sourcePoint" />
            <mxPoint x="720" y="90" as="targetPoint" />
            <mxPoint x="5" y="-1" as="offset" />
          </mxGeometry>
        </mxCell>
        <mxCell id="aFnh8GW0OJa8cc7-wk0_-6" value="Табличный хи-квадрат" style="endArrow=block;html=1;rounded=0;exitX=1.003;exitY=0.079;exitDx=0;exitDy=0;exitPerimeter=0;endFill=1;strokeColor=#660033;fontSize=10;" parent="1" edge="1" source="5ahT-SYsGyvmFBpI2IyX-2">
          <mxGeometry x="-0.382" width="50" height="50" relative="1" as="geometry">
            <mxPoint x="306.48" y="164.60000000000014" as="sourcePoint" />
            <mxPoint x="920" y="165" as="targetPoint" />
            <mxPoint as="offset" />
          </mxGeometry>
        </mxCell>
        <mxCell id="BFHDSr0xtl3oQ2cNYHXc-12" value="" style="rounded=0;whiteSpace=wrap;html=1;fillColor=default;strokeColor=none;" parent="1" vertex="1">
          <mxGeometry x="641" y="161.82" width="6" height="6" as="geometry" />
        </mxCell>
        <mxCell id="BFHDSr0xtl3oQ2cNYHXc-13" value="" style="endArrow=none;html=1;rounded=0;entryX=1;entryY=0.5;entryDx=0;entryDy=0;strokeColor=#660033;exitX=0;exitY=0.5;exitDx=0;exitDy=0;" parent="1" source="BFHDSr0xtl3oQ2cNYHXc-12" target="BFHDSr0xtl3oQ2cNYHXc-12" edge="1">
          <mxGeometry width="50" height="50" relative="1" as="geometry">
            <mxPoint x="602" y="165" as="sourcePoint" />
            <mxPoint x="607" y="165" as="targetPoint" />
          </mxGeometry>
        </mxCell>
      </root>
    </mxGraphModel>
  </diagram>
  <diagram id="FqEnTdHPgZsYN0w2MfE4" name="А2">
    <mxGraphModel dx="1195" dy="658" grid="1" gridSize="10" guides="1" tooltips="1" connect="1" arrows="1" fold="1" page="1" pageScale="1" pageWidth="1169" pageHeight="827" math="0" shadow="0">
      <root>
        <mxCell id="0" />
        <mxCell id="1" parent="0" />
        <mxCell id="_D8oGPy_eyKXDMzoRlBR-1" value="" style="edgeStyle=isometricEdgeStyle;endArrow=none;html=1;elbow=vertical;rounded=0;strokeColor=#333333;" edge="1" parent="1">
          <mxGeometry width="50" height="100" relative="1" as="geometry">
            <mxPoint x="80" y="130" as="sourcePoint" />
            <mxPoint x="100" y="90" as="targetPoint" />
          </mxGeometry>
        </mxCell>
        <mxCell id="RWR73GOMRbYbBOoSkMBg-1" value="" style="swimlane;direction=west;fillColor=none;swimlaneFillColor=none;shadow=0;swimlaneLine=1;" parent="1" vertex="1">
          <mxGeometry x="23" y="21" width="657" height="382" as="geometry">
            <mxRectangle x="23" y="21" width="50" height="40" as="alternateBounds" />
          </mxGeometry>
        </mxCell>
        <mxCell id="RWR73GOMRbYbBOoSkMBg-4" value="ВЕТКА: А2" style="text;html=1;strokeColor=default;fillColor=none;align=left;verticalAlign=middle;whiteSpace=wrap;rounded=0;glass=0;" parent="RWR73GOMRbYbBOoSkMBg-1" vertex="1">
          <mxGeometry y="359" width="80" height="23" as="geometry" />
        </mxCell>
        <mxCell id="RWR73GOMRbYbBOoSkMBg-5" value="НОМЕР: 3" style="text;html=1;strokeColor=default;fillColor=none;align=left;verticalAlign=middle;whiteSpace=wrap;rounded=0;glass=0;" parent="RWR73GOMRbYbBOoSkMBg-1" vertex="1">
          <mxGeometry x="577" y="359" width="80" height="23" as="geometry" />
        </mxCell>
        <mxCell id="RWR73GOMRbYbBOoSkMBg-6" value="ЗАГОЛОВОК:&amp;nbsp;" style="text;html=1;strokeColor=none;fillColor=none;align=left;verticalAlign=middle;whiteSpace=wrap;rounded=0;glass=0;" parent="RWR73GOMRbYbBOoSkMBg-1" vertex="1">
          <mxGeometry x="80" y="359" width="80" height="23" as="geometry" />
        </mxCell>
        <mxCell id="RWR73GOMRbYbBOoSkMBg-7" value="А-2 Расчёт количества экспертов" style="text;html=1;strokeColor=none;fillColor=none;align=center;verticalAlign=middle;whiteSpace=wrap;rounded=0;glass=0;" parent="RWR73GOMRbYbBOoSkMBg-1" vertex="1">
          <mxGeometry x="80" y="359" width="496" height="23" as="geometry" />
        </mxCell>
        <mxCell id="pPCHjVfvv4CIsFJKGFf--5" value="" style="group" vertex="1" connectable="0" parent="RWR73GOMRbYbBOoSkMBg-1">
          <mxGeometry x="97" y="79" width="120" height="60" as="geometry" />
        </mxCell>
        <mxCell id="pPCHjVfvv4CIsFJKGFf--6" value="Изменение количества строк в матрице ранжировок" style="rounded=0;whiteSpace=wrap;html=1;verticalAlign=top;" vertex="1" parent="pPCHjVfvv4CIsFJKGFf--5">
          <mxGeometry width="120" height="60" as="geometry" />
        </mxCell>
        <mxCell id="pPCHjVfvv4CIsFJKGFf--7" value="А21" style="text;html=1;strokeColor=none;fillColor=none;align=center;verticalAlign=middle;whiteSpace=wrap;rounded=0;" vertex="1" parent="pPCHjVfvv4CIsFJKGFf--5">
          <mxGeometry x="98" y="46" width="22" height="16" as="geometry" />
        </mxCell>
        <mxCell id="pPCHjVfvv4CIsFJKGFf--2" value="" style="group" vertex="1" connectable="0" parent="RWR73GOMRbYbBOoSkMBg-1">
          <mxGeometry x="257" y="199" width="120" height="60" as="geometry" />
        </mxCell>
        <mxCell id="pPCHjVfvv4CIsFJKGFf--3" value="" style="rounded=0;whiteSpace=wrap;html=1;" vertex="1" parent="pPCHjVfvv4CIsFJKGFf--2">
          <mxGeometry width="120" height="60" as="geometry" />
        </mxCell>
        <mxCell id="pPCHjVfvv4CIsFJKGFf--4" value="А22" style="text;html=1;strokeColor=none;fillColor=none;align=center;verticalAlign=middle;whiteSpace=wrap;rounded=0;" vertex="1" parent="pPCHjVfvv4CIsFJKGFf--2">
          <mxGeometry x="97" y="46" width="22" height="16" as="geometry" />
        </mxCell>
        <mxCell id="_D8oGPy_eyKXDMzoRlBR-2" style="edgeStyle=orthogonalEdgeStyle;rounded=1;orthogonalLoop=1;jettySize=auto;html=1;exitX=1;exitY=0.5;exitDx=0;exitDy=0;entryX=0;entryY=0.25;entryDx=0;entryDy=0;strokeColor=#FF99CC;" edge="1" parent="RWR73GOMRbYbBOoSkMBg-1" source="pPCHjVfvv4CIsFJKGFf--6" target="pPCHjVfvv4CIsFJKGFf--3">
          <mxGeometry relative="1" as="geometry" />
        </mxCell>
        <mxCell id="pPCHjVfvv4CIsFJKGFf--1" value="" style="shape=image;verticalLabelPosition=bottom;labelBackgroundColor=default;verticalAlign=top;aspect=fixed;imageAspect=0;image=data:image/png,iVBORw0KGgoAAAANSUhEUgAAAR8AAAEuCAYAAAC3cRZFAAAAAXNSR0IArs4c6QAAAARnQU1BAACxjwv8YQUAAAAJcEhZcwAADsMAAA7DAcdvqGQAACw9SURBVHhe7Z1/kFtXledPx8TAZBIgZqDbtBlrMUxg0wtpBrbVu14cVXmhBvPDEm2wtLXgmF81zdZSHsNW0nLHbqvnrx5XzbIdSAbTyTAtz9gluYo4W4BrZLMppN4w6bDpZAuMQQYbd5N1kgn5RTwh2nvuu/e9+17rd0t6+vH9uK713n2/JPXT951z3jvn9hUEBAAALeYa9QoAAC2laeKzItqCNQl6iMtnl9QUAOVpmvh8V7Td1iToEc7d+4/0gz1/reYAKA/cLgCAL0B8AAC+APEBAPhCU8Vnm3oFvcPAtiE1BUB58JwPAMAX4HYBAHwB4gMA8IWGuF2PPfYYPfroo3Tu3Dn61a9+RU899RQ9/fTT9Pzzz6s1AADAzZrE53vf+x7dd999UnRe//rX080330zvfOc7acOGDXTjjTfS6173OrUmAAC4qUt8rl69SgcPHqTvf//7NDw8TJ/97Gfp/e9/v1oKAACVqUt8vvCFL9DS0hJNTEzQhz/8YdULAADVU3PA+Zvf/CY9/PDD8rWc8JwVbY81CXoETio9i9wuUCU1ic+FCxfoG9/4Bt1+++30rne9S/UW54JoLECgd3juwhO0jKx2UCU1ic+3vvUtuummmygSiageAACoj6rFh4PMfHfrc5/7nOoBAID6qVp8HnnkEVq3bh1t3bpV9QAAQP1ULT4PPfQQvfvd76ZrrqnJUwMAgKJUrSS/+MUvaPPmzWoOAADWRtXi88wzz9Ab3vAGNQcAAGujJvHhtAkAAGgEVYsP3+1av369mgMAgLWB6DEAwBcgPgAAX4D4AAB8AeIDAPAFiA8AwBcgPgAAX4D4AAB8AeIDAPAFiA8AwBcgPgAAX4D4AAB8AeIDQJeSO9xHfX2etitJK2q530B8AOhiErkC8ehYsuUSqrc9gPgAAHwB4gNAV7JC+QqjGBVzyyLH2ClboeSuPppesNbT832HT1mvnm1sV+5SkiJ2f4SSl+TGnn7dpiE+AHQvYQoMqskShJPLtluWnVKdXhaOUuwET2yg6HFr3eVkmGgqa217PEr9lKPpTTEa1m5ebphim6ZFryZBWXWcwsV58c5g+QDQpeQpLwVjrQhRCRLNs9iUYyFD8bF52jui5kf20vxYnDK29bQaiA8AXctwRcunEivHZmgxuZdCar4UK/lFohMxGrDdqgFpLS3mS99bg/gA0I1ISyRAATVbF/kkjZ+M0OzuftVRmv7AMJGwfJa1a6Vaqsy2EB8AupDc6TiFd4ao9E+/ckA6Ho3R8D6O51TBSIgSwvI5qt0sFWSWQetLeUpbvS4gPgB0GXwXa3SSKB0dMO4uiRaMW67R4b+haekWhSmytYy0TGVpQsdwKhKkiYvztBhUx9oUI0ou0958xDruVEis4aZPmEYFNV2Wj3zkI/T5z39evlbDvaIdEi0v50AvcO7ef6SHDx2j3flvqh7gByw+M1uWi7o8K8ciNHB+PxUOeKWg9cDyAQD4AsQHgC4jeKB0oLd/d6otrB4G4gMA8AWID6iLS6d/TJe+/4irPfXYL+nlF6+u6ucGgBcEnEHd3L/tDlp+8HE1p+Czqc+alLxSoD/77iEa/OAtqgMAC1g+oG5umdglxYVeETPyVTS+lqnpgmgDH7gZwgOKAvEBdTO4/T208dYht6VjwN233D5mzQDgAeID1oQUlyKee0FID6yeDmdhmrj0RfJYxH5Q0SmzIZDL1UOFolnlOBRFymvwM0Z9h508d4gPWBNvEdbPwLabV1k/fUJ+brn9E2oOdC5xivFDieICw5UQ40Fdp4ez3Rdp/qLK4xLL0tGjqoRG8fIa/ySXOUB8wJqxrB8r1szw1c6yeoZVD+hcwjS/Rz0XJMtkpCn1IFs4QZoopCiqsuZlVruGk1opQSG7vMaEEKEJ+lM1q4H4gDUz+B9vEdbPkBAda56vdrB6ugWzLEc/BYbUpK5uqFyr8ZOqWyCFqEhGvcx8n8zYBcYgPqAhSLERpg+snm5jkfK6HKqZCS+rGzrVCVP7nL+3FJkT+dWP2QgLKDsVp1ElWBAf0BDY+tkorB8+Ed8Dq6eL0G6WQAqOmQmvhUlYQUfiskfC5TWE42VXMZTBZytWxKkfMg4kGh4yrMCFCxfUFKjEkw/+hC7ck6H3fvvPVQ+oxObNm9VUG8J3s4JECWGtxCetLh6KxyqzwW6XVa1QxoVyEUoFUxS5qOJALDibYnYdH2c7AxafatixY0fhO9/5jpqrzJxom63JjmZubo7FGa3K9i76o6L9aKubEB51lrUpuYR4n4mCcK2aAiyfCtx777106NAhOnPmjOoBYO2cPXtWnlf5fBv/QpTlky1MrCoE1hCkBFVBL1s+bX+FAh1HR5xXTbZ8EHAGABRHPZ/TrOo/EB8AgC8g5lMBHfNpa98cdBx8Xt1xIE6HTvyd6uk9ID4VgPiAZsDn1Z0HD9LCoz9WPT0Ii081IOAMQOPAeYWAMwDAJyA+AABfgPgAAHwB4gMA8AWIDwDAF5omPpyri3xwANoHWUNZ1dLh5qq57AOwfADoBRamaSA6bBf/KhSWKXJywFcBaqrlw8D6AaANWJWn1U+hnWFKn/fv4dmmig9cLwDalRXKnExTeAtXWrbqMZvD4riHuXHXa+bhdHhJ7rDbdfMOjcPL7W08++JjNd3t+oF6BQC0AzmaloIwQDGap9nduiRqaVaOjVNsKGu7a/NjcZqp4K6xEI0uzdOy3mZpdJWL11Tx2SbaWWsSANAW8JA3VtwnOxSjAcNSKUX/7hQVDmiHLU95WTq1HJZVldgXFc4d00/RfQlKn8yIJQ5NFZ9Pi8biA9cLgPYjuGeewpMzahBAonjQcZMGorr6ssA1MukMLaoRsANbwqsExcISKHN/fcG4a0QLXtZ0y+czou0Rrd0EaEK0OWsSACDgIu+Wa1Wg5WRY9VojU4STy2rZLEXUkv7ds8JxE9aTEhhHsAIUEAJl7s9qTsCblzU95nOnaCw898m59uKzor1NtG/JOQC6F+sZHytQrMnNxSg9FqGQPShgaey7YnL4HGtSulPHHXFxBMu6kxY/krStIhl83uXMM00XH77jxdaPru/TThbQtaL9QrTPiQYRAt2MjNsI5dED9nGTAeHjOi5TCiteQ5Oj1nanQ5SdMsSoBHw8GVPSx5pMUNZ7LKFYVVFrPR8vZ0Tj6iXb1HReND+5Q7RXi2bLtmjrRPtXoh0VTYO6K6AZ4Lxq4tA5xWCrh60fDkLrhxA5LvQBa9LuawUzov2NaFflnJt1or1VNI4LrUMlQ9AEuJLhzMxX6K67Pq56SiMMB0mpXypbFuXg7SqtU2yxebxK21tUs45DS8VHo2NA+k6YX67YetGKiY+GRejN4iRZJ8TnVxAf0EBYfO65Z5xuu63cGegX5SWhtAiqCUE1quKL+JSilSLEls83RXtJzrmB5QOaDWqDtyDgXAs6JaMV7XWieWHR4YfN7xaNA9F7RQMANIe2Eh+/YNFhQfqGaBAdAFpDT4vPy6Jp0WHjl5/7AQC0hp4WH4gOAP7Rs+IzLRpEBwD/QMwHAOALEB8AgC9AfAAAvgDxAQD4AsQHgDbFKoMRsYt9aYqVx+hEID4AtCmyLMVUmmL7jDo4l5I0HiWav2iORNGZQHx8wlXZ326rr3KgtwkeyFLiRIzGZfH1FUruixElZylaRQGwdgfi4ydTekQAXQmOKLapOea0PayJuHJGusBk7x2CNJFLUDo6TpFd3hEnvEPeqCFuihaFN9dV63FlQVd9Zqut2p+9zFMJ0XsBVceV/YeTxrbFt4P4tBH9u/dTguKUMcZPahT2CASDUUq5Bo8Dbc/IhHS/0ieKVAM0cZU4LQOvx0Ph6H2N6SFuRBNCFw9aYlF+yJwVyi+FhfunL5y6hKpiMkb5fday7FScRnUJVSF2ekgdiE+7Ii0UfeUQzXU102MvWU1eqVZZNLyO4ca59qf73fuxm/fKyVdH4+ThdfTV0Qp+qu3MGr3e9y+b9f74ymeO4SSvhHJbz3sWPc7VminyuTWrPp/3qq3aGq/2/pCjzCS/lrswie9GXFHmvSJQhNzpOCW2l7n8jAVkdYfah8wxEIK2d8SalKNknEhRhv+uPHKqEj2ITxuxcmxGnF4JCo2IH4Dw7Yd19f+L5hAn/OMYpUU9moBYthgUP7ZluYsSiBNzk7G/3LBy74wxnKbIGaHAPuG8iGMfWZRXuwk+scSP2Bn/W1wZeSQDl3CJK7Xav/wMqteFEI0Z+cOqRInPrUV01ec7SgFV3FxelbWLu6arvT/kDo9SXLx//hz6fXrhc2cxuZdCat4r/lpceciamS3L1t9Pc8KptcxD3NjjbblE2hkyx4LFaJgCpWJPQwHHQhsM0LCaNN8XxMdPdFFu1QbsuxjWqAD2CXIpT/YoSpcylDoRpshW9aeVblSKogPWbFEWMhQ3rkQ0slf+qGp27/jY5Ix2wFdQmgopF04XGs8U/XEUh0VW7DEptquE/NwJ2q/jHeJz7xeuSOpBIQz8+aRoW4tWj0teBY242jcDIQCy+Lp4T3KoGvF3G/VapvkkjZ+MuEcfleeFElfR9LnEQ9bM0rh79FBTiAtZYaooy7HEkDkScU4uqu+sKEt58ddV8LpqUo6YoS4EEB8/8QScCywi+odtBvOEtWFbDVKIilxx5NWluKCs5MWf3ry68VC54ke1mK/his7bb8rTfjvmwD6/sJbkWN91ImMP+ylq74LHe1KC4kV+bvHDsz8Dj4hgjaIgP1+5H0Ix6rratxp2pcR7y2khFQJ/hK3gUZfLGY8Kq88eHbQyLGKRk+OGe1ua4kPmWCJCO0Olj6ndLMGqIXqUMEF82hHpijjBvMIR45ojRCYsriP5VSeOdVfEGSVSmOpqSX9AGL2uq5vVUlWM020jtw9Rxo6B9FNgqPIQKqXJyBgFX9EdrB8Xm3HWZ7BEUiI/t+HG6cYWAX8+YzTMqqjnat9SOL5luVsuF0lYNLPS/dIup8C7TkX4e45QSt9ZdV2Y+JjigjCoLdnVQ+bwhVEKv/13UgMGinVti2pqmPKbrGXmsDlW/Mc6HsSnbUnbAiOvHNakOPlCFHFZB3ySKp9euhvOD8p2ZkZC8lmRo/pqqfxuV8C2KljgyDb7g9tNN8v64dpumOkqFiEtrtYcozClR+JyFzjmovv5c5vxF+tzy5OdP59p9cnPZ/w4a6TU1b61qHhckfibdA2llSwEguNaxjput9HEWtcWKfk9C4vKdc6oprc3l4m+4AFnmSPQTmNxcgjZ8USXC2z8fSE+7Yj4A+0Xf0htxWS2s5BoMeKTKEvD9lXHCsKWv/KJE1kGaK399W3iB9UqbVMCcUJmSV3hxPRyclG5QtYzKMvi5JR3wHhsbjseVARhebhiFBVZ/bnZKrCst9WfbzjnuLBFqfFqDxpPn1Cgthm9oh3BKAOgGcjz6sAdlP+fR1RP9/D4d75CO34nPtttNxFde53qXQ3EpwIQH9AM5Hl1x37KH/206ukyCq+oCUGfcLCuWSfaeqJ111rz3A3xKQ/EBzSDnjivXnyK6AXRmKd+TnTpIatvwxaiLR9EzAcA0CRee6MlNNze/kGiWw8Q/dtxa9n/noX4AABaCAsRC9DbPwTxAQD4gLCEID4AdAWc+8aPDbhzv3Tir/1MlyfnSyYRF0m05Ta9YO0zcizpJPTaycPWMudZMXV8+QyYd5mAj2EmHgsgPgB0EeGxRSPFZoUyJ81HPYUoFEtYHtQPE/LzZM6T9fo5sHQ0RQHZVyx5WFHHA5kQn65GXY30Vcs+acwrk1pHX5VcV0b1lLD3amkuY4ptw8gr6jQljbIb8pglr7S8kfXksrtPUOQ9uJIjgWR4Z4QWT6u/s0wETlDCzk/zPOVc4Sl0G/kAJk/ohzC9ycOcg1ZdOQ8TiE8Xkzs84C4PsWTk3mhchaXESVS09AZj5lUZqRtlt2HiFDu/Xy3j3DMhTiWvtCyERtkMvb6dJmG8B3HVpmh1yZE9RSBEkSVLHFYeTMnkTzPhtmTCchlcycMyx87NqnIeVQLx6WLMXBx91UqfzFgWjsJVWKqe0hQVy3UIcdmj9iCXlchaZ7zlQiqtXyy7v+fpp9BOdr3Y5SLxXRrCIazHkgnLZXCll3itpWLlPKoE4tMD2NUGOd/KyP72FpaqpzRF5XIdpkBYmfAlKVUuxMYoqSHz04okpgLq3ypcryPjrtpLDiUSlstRKnlYUGs5DxOITw9gZUGLK51wY0xx8RaWqqc0ReVyHWb5D6sGUElKlgvRmK7fMkVODrjvqAALru10QsiKt95O2YTl0oTFNjP6wqKSh23KlPNwyruIJi987mA1xKeLcddKVlcts7ylwFVYqlRpinIlWiuW6zDcJnlHxHCrvHjLhVRaHxiYwWSrHId1AXAHmaUrrgR8YsRazxEPni9SDWDLXqfMiV1MztqvWb7DKeehlultVPMWmYf4dDHBA5Z1YLtD3quWRJwodmGpEqUpypVoLbKNu1xHgobPq/cgq/KVK3XBJ61RNmPV+mYlQ+vz2LEm0HkIRaqKSCRSSKWE/vUYc3Nzhc2bN6s5UBO5REGIT0G4SsBDZ5xXy4X5MSqEk8KpbgDC8ikIN03NFQpVWz433HADPfvss2oOAND9WO5TTeV2y+Ctsli1+Fx//fUQHwBAw6hafN761rfShQsX1BwAVVDNc0KgZ6lafIaGhuiRRx5RcwAAsDb6OPCjpsuysrJCO3bsoK997WsUDPbOtQyVDEEz4PPqrw9P0bf3/4XqaRzXveUt8nX99TfIV5Orz/6Wnv/1r9VcefT2195wfdF9rZWqxYe57bbb6LrrrpMC1CtAfEAz4PPq29MJ+m/D71E9jWPd+mvp5d/9jq4VgsHTfVw/WVF45ff00tP/rOYqw+treD9969bRtdf9AV1z7XrVWz81ic/CwgJ96Utf6njr5/Lly1JQ3vve98q61OWA+IBm0Ozz6tdnM/Tz4/9Ar33Tm+htY5+kG//1zWpJ7bz4/56gF58QTbw+/fjj9NTjjzVkvzU9ZDgyMkIf/ehHaXJykn7729+q3s5j48aN0oW855576EMf+pB8BaCbeMu2EP2Hu+6m1/7Rm+ix2a/Rjw4ekOJRD7wPFhne583j/0U2hvf58xP/IKfroSbxYVh4BgcHae/evR1tDbDV8+Y3v5muXLkCEQJdiykW/+vPvyCFqF4R0rAQve/gYdqy61N0/vjf172/msWHmZubo5tuuolisRh9/etf78jnf9j6+eIXv0ivfvWr5TxECHQrWiy4scvEIsRu2VpFSLtdP7qzPqtq3UGBmq6JUCgkf8D3338/3XXXXfSzn/1M3hG7evUqvfTSS7Ru3Tr7h92u8IOTp0+fpueff171EL3wwgv08MMPUzqdltP8OX7wgx/Ql7/8ZbUGAGvnxz/+ccvPK47T/PGHPyJz4375wCl6+v8+Ll0q7q8XFp/LZ8/IfdywuZZiLDUGnEvBz//88Ic/pGw2S+fOnVO9nQMLzO9/70T1TVig2L3EA5agkfh9I4MtFQ5I6+Axu2YsRPXArhyj3btqaYj4eHniiSfo6aefpueee071tC9f/epX6ZlnnlFzDhwP+tjHPkbr16/H3S7QcNrlLiqLDweN+ZVjOBu33VqzCLELx9YPu3W10BTx6RTYZeQTwESLjr4Fj1vtoBm023mlb80zb9v1SXlnq1p4W7Z+PnjipOqpjroCzt3C7OysmrJEhwXngQceqPjsDwDdhr41/5ZbQ1KE+DY6W0PVoC2lWoPOPSs+bPXwHS6IDgAOfAfrfYcOS0FhAarm1ny9AeueFZ9Tp05BdAAoAgsPB48bfWveS0+KD6dX3H333RAdAMrAt9HZFWMhkq7YnQekCDWKnhQffj4JAFAdOh7EYqTjQY2wgno64AwAqB62gPSzPI1I1YD4AFAteox5Pa69F+948qXW62CKpWqsLGTV0tqA+ABQJTy0NI2FKWyOU6Zh4THHrBctOxSjgS4UIMaMB/3q1CnZ9881ZjdAfACoihxlJokS+2YpMkYUP+2MvMmsPJiitDlmvSC4Z14IVYoyFUYE7WQ4HvT+xF/K6XN/e29N8SCIDwBVsHJshuKUoNBIP4V2ho3xyy3ksDD2aJ69yTv+82fka7XxIIgPABVZoczJNNFUSI7E0b97v3tY6RJIa4iGKVByhNbugJ8L4tSKgX/3713xIH1rvpQIQXwAqMSlDKVOhGl+jy4dHKTQlHC9jpSJ5yxM00A0TYlc7w0dpONBOlWDraBiqRoQHwAqYMVzIhQyLJjg9gRRqXgO3xULxinsGrO+9zBTNViAvPGgns5qrwZktfc6OZruGxVOVnFYYFzDCRvCU26YYT6vvvpfD9B/Wn+KCi8X6BXRmJdfli+reOXlV4jEKvxr7esTHdw8XPOqa2j9a/roWtF4+ppXqQVtwOuvz9MfbzwrX395+VZaefIWiE8lID49jhSTRZq/mKKoJ3aTO9xHo5MJyupRWZXwJHKFihbP3TNJWvzKn9AfvnEd9d/0GtVLYv5aNeXmug2vopeee4WWHrCGvdk0fB29+e3uSqHPP/kyLf/kd/T8lX+h5678nt7z8dfTuz/2OrW0PfiXS1m6eu471gyLDyjN3NxcYfPmzWoO9BrZKWFvTGXVnIdcgi/cBSE2hcLF+UJYT1cBn1fvHHy/mquN+w9eLnye/qkws+2nhZ+e+a3qdcPr3L75Ufnajiz9j/9eQMwHgFJcStIMP9uzvUTIeGQvzatnfnJzMUqLrnjQeMJZtekSd8VefFXtqQnnzj5LPxWNCX56A71j2/Vy2suOOwdo9DNvpOy9V0R7UvW2D/xwIsQHgFIMRilVKOdC9VP0eIEKB4IUPOA82extjQg6P3nhKv3Vredke+Pm9fSX+SEhLhvU0uJoAcrd11zx4SAyl2Kt9uFCDcQHgDbn1KFluiOwJKf/4sw76NNzm2mDEKBqeMcH/lBaSyxezYTH76oViA8AbQq7Syw67Dqx6HAr5WaVgtdnoWq29VMPEB8A2gy2VNi9um/PBek2sYtVq+iY6NhPu4Fb7RXQt9rPnDmjegBYO2fPnl31CAe7RvcKwWHx4XjOjjs3Vu1elUOL2d2F96qexsKxHs7n4qeadTH5qmDxAaXhW6L8NaGhNbqZj3BUc/u8Xq7kX5L75tdm8MITvyl89xMfl6+1AMunAhipFDSTy2evp1OHLkurhwPJle5g1csX+h6W7lsjLCkv9Vo+EB8AfIBdofsPLcvXjxzcKG+LNxMWn3oC1tVQr/gg4AxAi+FAMsdgGLZGmi08DFs8V5p8u71aZLmNgwcgPgC0Cr51zhYIP6Gsb503ww1qV9hCYtHhxhYSxAeAJmPeOue4zlpvnXci/AQ0u2YMFxtDegUATcSbEsG3upsVUG5XuJIhi86vz2TsKodcbIyB+ADQBNjK8aZE9BI6rsNFxLiiIQejtehoID4ANJBicZ1ecrG8cR0WHa5oWAyIDwANwIzr8K3zXozr/PKBU6viOuVuvUN8AFgDxUpdtOLWeTuhRyz95QP3S8Ex4zrlgPgAUCdrKXXRDei4zrm/vU/Os4vFgwhWC8QHgBppRKmLTkePRsHoEUtrBeIDQJWYcZ1GlLroRPjW+ffGdsrAsr51/pob63t8AOIDQBXolIhejeuYt85rieuUA+IDQBk4rsO3zjkvqhfjOt5b5zwsci1xnXJAfAAoArtYHNe5/+BlKTi9Gtfx3jpvJBAfAAx0XIfbnwix6dWUCI7rsKul4zprdbGKAfEBQKHjOox2sXoJM66zZdeniqZENBKID+h5kBJRfUpEI4H4gJ4FpS6Kl7oolxLRSCA+oOdAqYvypS5aBcQH9BTFUiJ6iWpKXbQKiA/oCZASQfS7/zPX8rhOOSA+oKthF4tjOtz41nmvxnU+8KeT9MqLV1oe1ykHxAd0Nfw0cvDTG6TgsPXDbhcLUi+g4zrnj/89/eTCTvqDka/45mIVA+IDuh4WHu1qsduVu+9JtaQ7MeM6LDacEvGbK7eope0DxAf0DCxC3Z4UyoLDwsNwXKfRKRGNBOJTL5eSFOnroz5PixxbUSuA1axQclcfTS+o2TLkDuO7rIViKRHtENcpB8RnTYRp/mKBeMRp2S7OE0UHqvpxAdAITBeLrRw/b53XCsSnkQyGKDJGtJjHFRs0l2aWumgVEJ9GcilDqRNhimztVx05mjZcMrdFVHoZuxy6v+9wTvVaLovdz21XUvQKpAs4Lfa4Grf7Uu79aEzXSB1TH6fa92yvzxjb7DpKee46PV1kH+bnm6YMd50/aru29mfwflbl/sr9LIj9uo5tfJZy20lKfLZV363ep3t9u4m/V0mXcdW+6qNYSkQnAvFZE2mKbTJOvE0xGs6lKDrIy/gkHaXF5LLtki0GI5S8VH7ZyrEIjS7N07J05bKUmBx1nciJnHLxCss0TzEarzouUu79lGDhKMWGslQ4HqV+7/a5BMWLvucCZYdiNCBF07PNPqL4CdGWAta6xnvIHR6wjiX7A7Q4Kb5d0fbLfWZpuIQ7m5uLib9C7bi3q+O7oSBNyPcmPu+UcMD1tgeCannjaYeUiEYC8VkTnpiP+JFQUF31pBWUoP27lRU0GKX9U2lKPaiXGRaSWJYqsGitUOZkmsI7Q+LHzgRpbzJM6ZMZ8fMoznBAW1kVKPd+SpA7HafEdvVj8r7nkb00P2Zt3787pQTKIrhnnsKTGcqt2iZECfGS2KfWtd/DKcoIobGPpdzXcHKv+AYY63uIn/bYDMLSGRUSPC/WrQnvdnV8N62knVIiGgnEp6EYYnEpL66scRo1TPJRvpqfF46HXDZMAWkhmeQpLyyDcoISF+Jm7U9YCuIHtHdELfAcy3HXFOXeTxH4ODNblmlC77/kezZgt4f3LSzANC1Sfpk7zW0CFCgpFGFjvX4KDKnJkghr5cgize+pNc5RZLuK3425THzv4m9UibSw1PS++voqWVHF8avURauA+DSLwYD4OSUoa1tFqrFZLpeJH+eqE9L6cZYLWDtuV4GWd6aUeyOXGMcSLtnSqNtNKfd+isDHmaVxx+Ur+Z4NRiasfQq3Jcyi876A+N/cxhJXhxXKyxzPt4rPnTbW0/0O+fNu5yp/bJxSO2eVi1s9Rber+N14vtsqLC3bDeOWG6bYPjMWVRk/S120CohPQ8nR0ahym6TrEKcZOyZjBSjlj1kuM816a9n0Qj+FdppulrE/Ob8Gyr2fEvTvnqXIyXHrqu19zxwPUi4Vx3xMS0vGU8aEkEoxTVNsTi1byAgbQtgR2n2y3bJ/Iy2d+BEdQOd+YT0Y34PLLRN7iUWHHTepakpsV8d30yzMlIhuiOuURSgzqIeL84Ww+Pr4K3S1KXGNtMkWElUuE1dK1S+WTBXbZrkgrrhOv2zhwvxFsajYe1Hb8b6cfZd7PxrrOMLysZD7TogtGff29joC13u212eMbcYShQTveyphr+vsw/x8Yj1+32I9/bnsz6A+q3c7OZ9z9utu4nt6qMx2khLfjevzM97trM9e8u8nm/l3Mvfl8ORjS4WH7owXvvuJjxeE8KjexnH75kcLP5y7ouYaywtP/Ea+b36thT7+T3xBALQAvqs0QPl9BSeWVAK+Xc0xp1TN1o0XtmJmKHBR34VsPziQzBYPP6fztl2fbIp7xeVEdty5sSlF0zg2xdYax6Rqee9wuwDwCY7rmKN/dmNcpxwQHwBaDN8613EdFpyujuuUAW4XAC2CLRx2sVh82MVq5ZPJcLsA6FFYdLy3znsdiA8ATaRYqYtedLGKAfEBoAl0cqmLVgHxAaCBFEuJ6LRSF60C4gNUOQxP/pHK03Ke8uVndHSuEjcuDWE9Cez0qabKSvQdThrbOKUkvCUn5LqqFIZ3WaPKULSCXkiJaCQQHyAJj5Eri5sz2k1Wjo07JS9kfhOnIwTKl5WYjMkHCq3lcRp11dpRCHGZmVTTHUq3lbpoFRAfYLEzQsOuXKoEJYSgaGTZDDvR0psgWoIxJ+teltk4kaKMKzFVWFP7UhRJJtR8Z9GtpS5aBcQHKEIUGlLiwAmgU2LeWmChy2XINkOLVWR201DASYgd5Ax3D7JY2X6KBtR8h1AsrtNNpS5aBcQH2AS3D0vXy1VETMI1cOJGmYhZiqglZVnKO27WpTwtqkmLDE2LQ2RLlPRoVxDXaRwQH+AwEhKu1zjNCJcrVCTx0y6uJctpWJNlMdwsq8xGhEIquTMdjdGiXamw/TFLXbDgIK6zdiA+wIAr8KQpLVwutyj0U3Rfgmhy1HK7TodkgLlUFUSbqWHKb7JctVEhaFmj1CrHg2ZLZKy7qgDKqoglgtUtwBvX6cRRItoV5HaBpsC3zEcpW7JSYk1wvOlIgJZN8WoBLDhs8bCF0+nuFXK7AOgAdEoE/6j0rXPEdRoPxAcABbtYfAXXKRGI6zQXiA9oCsEDxsOGa4UL0zfR5TJvnbPYIK7TGiA+oKdhK8d76xy0BogP6ElQ6sJ/ID6gpzBvnW/Z9SmkRPgIxAf0BEiJaD8gPqDrQUpEewLxAV0LSl20NxAf0HWg1EVnAPEBXQXiOp0DxAd0BXr0TwZxnc4A4gM6GpS66FwgPqAjQamLzgfiAzoOFhwWHgZxnc4F4gM6hmIpEYjrdC4QH9D2mC4Wx3Vw67w7gPiAtsWbEoG4TncB8QFtCVs5KHXR3UB8QFuhb52bcR24WN0JxAe0BUiJ6D0gPsBXUOqid4H4AN9AqYveBuIDWg5KXQAG4gNaxrMX8vSTe79Fl8+eQQlTAPEBreP6zQG66TO3SUtn47ZbVS/oVSA+oGGsHIs4Y6yLFjnmx+jqoFOA+IDGsDBNA9FhyhYKxMP/FwrLFDk5AAECJYH4gMbAo4oWJsgZo7SfQjvDlD6fV/MAuIH4gCaxQpmTaQpvCcjp5K4+ml6wljDSRTucs2YuJSliuGu6P3fY7bq5thHwcu825Y/lXWbNV94naAYQH9BgcjQtf7wDFKN5mt1daYR1IQD7YjScU+7axXkKT85Q8pJaXAIWlNGleVpWLt780mjtLt7CUYqdUNOChuwTVA3EBzSYIE2ouE92KEYDFa2HfooeL9DEiJq9lKe0miyNZVUl9kXF1ozYx74EpU9mxJJqESIpfMT5ZFjNN2KfoBYgPqBpBPe4rZh40HFpBqKOxLhcnSOLpOUgsCVc4sefp7ywWMz99QXjRCdEv1qj1LE0K8dmaDG5l5wCHZX3CRoLxAe0jIR2rURb1hbHpSTNTIZp/qJadiRi9Qv6d88Kx01YT6tEJECBMff+rOYEvIseS5NP0vjJiMclrLxP0FggPqAhyKBu37RwZhxyczFKj0UoNKg6SpKmvLKO5DbWpMByyVaLiHUnLX4kaVtF0nra5cyXIx6N0bDtXmnWtk9QOxAf0BD6d6eoIJRnVLssosng7XHvj9zDYJT2TznuTmZ7lhKGGJWCjydjSvpYkwnKVjqWZirrxJgM1rRPUDN94opSUNMAgC7ljsAS7bhzI41+ZoPqaRxcFoUThTlXr5aqBLB8AAC+APEBAPgCxAcA4AsQHwCAL0B8AAC+APEBAPgCxAcA4AsQH1AzZi6WLk/Bfa4M8IVp4+lgVbpCbaOfhPaWyDC38e7PfNrYOn7EnfnO24p9O9vo7HqrmSU2ii2zntB2+qwmjvEjLvdhPLmtyn+49wfqAeIDasJVduLiPC0G3SkVxVg5Nk6xoaxKk1im+bE4zdRSqkLmf6lpRXiMKPWgIU6n42qKYbEbpcXksnXMXILiQS1WnmXyM0QoszVlz4cpoSoypig6IHdo407/AGsB4gNqQqZR1JhyILc5oNMzrezx6uF6PymKJBNqXrEzQsN2xnuOMpMJSkzJGSFWGUqdCFNkq3qXI3uF4KUtsfIuG4xSikWmYv6ZQFhXozQv9qXmwZqA+IC6kK7PJi4C5mR9p4WZYLssXI5Co1wiq83Qovrx9geGiSYz5S0nLvg1tJ+iXBDRRYhCQynKsDWzkKH4lJi3FgiB4ZpAwxQoJijllpVFiOCRRZrf4xThAGsD4gPqIniA3ZKsmHBiL2HtyihXx4J/tHFj2SzZRTNGJig7FXeSUU3BkmRkwa+sbTW5CW4fltYMu1yJ7cY6gwHhOi0WT04tt6wMeeE6pnbOVmchgaqA+ICakBZPHbWN7ULyntKlloh5BcsiHY3Jgl/FpUcwEhKu1zjNCJcrZGapD4Yoot0sRh5TuVreZSr4XD6AHKdYdJj2VywJC2oB4gNqInggS4nJUeVCceC2kjVglSMlvc3pkLB2DDEqx1ilGtAB8S9NaeFyuQWK6wBlaVi7gcKiSuR0XMezTH6G5aIlNkwShnsJGgNKagDQA6CkBgAAKCA+AABfgPgAAHwB4gMA8AWIDwDAFyA+AABfgPgAAHwB4gOaDGeR88N87ux3XcLCfrJYlaqwHvwTjZ+iduWEOW16wdpn5FjSKY3hKd/hPLGsji+fyvYuExhlPEBrgfiAlhAeW6SMIQiZk2ZhCiEK+zhJVaVZcFkLHuN9cEKlXvBAgs6Qyvpp5HQ0RQHZt2wNq1ws7cOTzgHaB4gPaAnDOyO0eFqJA5e1EHKSsEtTWMMi2ykOMvO8Cqb2OykTMoXDmyGfk4mp896x2kFbAPEBrSEQosiSJQ4rD6aIdobIrJJhVSdU7ciisHMqE95i7EFmq7tZOTYjE1NRBKM9gfiAFtFPoZ3serHLRRTZagiHrFTouFWFI3bRjbK4klO91lI+SeMnIxUSU4GfQHxAy+jfKlyvI+PC5YpQaFUmfNqusVN1qVLbzVqRNYPIyG6PR2M0vK+2iougtUB8QOsQrtHwCSErwuVyicJglPZPCcEIWm5XZjsHmB0xKkVYbDMjXbUBitE8LZtFx6ayJctk6OPIxgXMTpQIVoOmgpIaoAPhW+YDlNq5TKkGuFV823/g/H6jznT3gZIaAACggPgAAHwB4gM6EOu5oEa4XIx7aB/QKiA+AABfgPgAAHwB4gMA8AWIDwDAFyA+AABfgPgAAHwB4gMA8AWIDwDAFyA+AABfgPgAAHwB4gMA8AWIDwDAFyA+AABfgPgAAHwB4gMA8AWIDwBgTejSqS8+8YR8rRaIDwBgzdRSu9mC6P8D4I5STqpXIlwAAAAASUVORK5CYII=;" vertex="1" parent="1">
          <mxGeometry x="23" y="420.9966666666667" width="287" height="302" as="geometry" />
        </mxCell>
        <mxCell id="pPCHjVfvv4CIsFJKGFf--8" value="Неудовлетворительный&lt;br style=&quot;font-size: 10px;&quot;&gt;результат" style="endArrow=classic;html=1;rounded=1;entryX=0;entryY=0.5;entryDx=0;entryDy=0;edgeStyle=orthogonalEdgeStyle;strokeColor=#333333;fontSize=10;" edge="1" parent="1" target="pPCHjVfvv4CIsFJKGFf--6">
          <mxGeometry x="0.2509" y="50" width="50" height="50" relative="1" as="geometry">
            <mxPoint x="40" y="130" as="sourcePoint" />
            <mxPoint x="350" y="200" as="targetPoint" />
            <Array as="points">
              <mxPoint x="70" y="130" />
              <mxPoint x="70" y="130" />
            </Array>
            <mxPoint as="offset" />
          </mxGeometry>
        </mxCell>
        <mxCell id="_D8oGPy_eyKXDMzoRlBR-3" value="Максимальное&lt;br style=&quot;border-color: var(--border-color); font-size: 10px;&quot;&gt;&lt;span style=&quot;font-size: 10px;&quot;&gt;количество&lt;/span&gt;&lt;br style=&quot;border-color: var(--border-color); font-size: 10px;&quot;&gt;&lt;span style=&quot;font-size: 10px;&quot;&gt;экспертов&lt;/span&gt;" style="endArrow=block;html=1;rounded=0;entryX=0.5;entryY=0;entryDx=0;entryDy=0;endFill=1;strokeColor=#99004D;fontSize=10;" edge="1" parent="1" target="pPCHjVfvv4CIsFJKGFf--6">
          <mxGeometry x="-1" width="50" height="50" relative="1" as="geometry">
            <mxPoint x="180" y="50" as="sourcePoint" />
            <mxPoint x="240" y="110" as="targetPoint" />
            <mxPoint as="offset" />
          </mxGeometry>
        </mxCell>
      </root>
    </mxGraphModel>
  </diagram>
  <diagram id="53hJzm69GLmLmKsDJLpW" name="А32">
    <mxGraphModel dx="1434" dy="790" grid="1" gridSize="10" guides="1" tooltips="1" connect="1" arrows="1" fold="1" page="1" pageScale="1" pageWidth="1169" pageHeight="827" math="0" shadow="0">
      <root>
        <mxCell id="0" />
        <mxCell id="1" parent="0" />
        <mxCell id="P_emKmW7A5pSrtwgPLMN-1" value="" style="swimlane;direction=west;fillColor=none;swimlaneFillColor=none;shadow=0;swimlaneLine=1;" parent="1" vertex="1">
          <mxGeometry x="23" y="21" width="607" height="359" as="geometry">
            <mxRectangle x="23" y="21" width="50" height="40" as="alternateBounds" />
          </mxGeometry>
        </mxCell>
        <mxCell id="P_emKmW7A5pSrtwgPLMN-2" value="ВЕТКА: А32" style="text;html=1;strokeColor=default;fillColor=none;align=left;verticalAlign=middle;whiteSpace=wrap;rounded=0;glass=0;" parent="P_emKmW7A5pSrtwgPLMN-1" vertex="1">
          <mxGeometry y="336" width="80" height="23" as="geometry" />
        </mxCell>
        <mxCell id="P_emKmW7A5pSrtwgPLMN-3" value="НОМЕР: 4" style="text;html=1;strokeColor=default;fillColor=none;align=left;verticalAlign=middle;whiteSpace=wrap;rounded=0;glass=0;" parent="P_emKmW7A5pSrtwgPLMN-1" vertex="1">
          <mxGeometry x="527" y="336" width="80" height="23" as="geometry" />
        </mxCell>
        <mxCell id="P_emKmW7A5pSrtwgPLMN-4" value="ЗАГОЛОВОК:&amp;nbsp;" style="text;html=1;strokeColor=none;fillColor=none;align=left;verticalAlign=middle;whiteSpace=wrap;rounded=0;glass=0;" parent="P_emKmW7A5pSrtwgPLMN-1" vertex="1">
          <mxGeometry x="80" y="336" width="80" height="23" as="geometry" />
        </mxCell>
        <mxCell id="P_emKmW7A5pSrtwgPLMN-5" value="А-32 Работа n-ого эксперта" style="text;html=1;strokeColor=none;fillColor=none;align=center;verticalAlign=middle;whiteSpace=wrap;rounded=0;glass=0;" parent="P_emKmW7A5pSrtwgPLMN-1" vertex="1">
          <mxGeometry x="80" y="336" width="447" height="23" as="geometry" />
        </mxCell>
        <mxCell id="hR7w_iYyYy1LM_3Q_ss9-1" value="" style="group" parent="P_emKmW7A5pSrtwgPLMN-1" vertex="1" connectable="0">
          <mxGeometry x="97" y="59" width="120" height="60" as="geometry" />
        </mxCell>
        <mxCell id="hR7w_iYyYy1LM_3Q_ss9-2" value="Перебор матриц решений" style="rounded=0;whiteSpace=wrap;html=1;" parent="hR7w_iYyYy1LM_3Q_ss9-1" vertex="1">
          <mxGeometry width="120" height="60" as="geometry" />
        </mxCell>
        <mxCell id="hR7w_iYyYy1LM_3Q_ss9-3" value="А321" style="text;html=1;strokeColor=none;fillColor=none;align=center;verticalAlign=middle;whiteSpace=wrap;rounded=0;" parent="hR7w_iYyYy1LM_3Q_ss9-1" vertex="1">
          <mxGeometry x="90" y="44" width="30" height="16" as="geometry" />
        </mxCell>
        <mxCell id="d8X0pgp5Qmyx9LWQNfpq-3" value="Все варианты&lt;br style=&quot;font-size: 8px;&quot;&gt;комбинаций&lt;br style=&quot;font-size: 8px;&quot;&gt;рангов" style="endArrow=block;html=1;rounded=0;entryX=0;entryY=0.5;entryDx=0;entryDy=0;strokeColor=#6F3BFF;endFill=1;fontSize=8;" parent="P_emKmW7A5pSrtwgPLMN-1" edge="1">
          <mxGeometry width="50" height="50" relative="1" as="geometry">
            <mxPoint x="17" y="88.93" as="sourcePoint" />
            <mxPoint x="97" y="88.93" as="targetPoint" />
            <mxPoint as="offset" />
          </mxGeometry>
        </mxCell>
        <mxCell id="-5JTnPu0ODjV_CeIKEp3-1" value="" style="group" parent="P_emKmW7A5pSrtwgPLMN-1" vertex="1" connectable="0">
          <mxGeometry x="257" y="179" width="120" height="60" as="geometry" />
        </mxCell>
        <mxCell id="wwYSZ-ZsymBfmjkhnkvd-1" value="Результаты" style="edgeStyle=orthogonalEdgeStyle;rounded=0;orthogonalLoop=1;jettySize=auto;html=1;endArrow=block;endFill=1;strokeColor=#0000CC;" parent="-5JTnPu0ODjV_CeIKEp3-1" source="-5JTnPu0ODjV_CeIKEp3-2" edge="1">
          <mxGeometry x="-0.601" y="15" relative="1" as="geometry">
            <mxPoint x="319.9999999999998" y="30" as="targetPoint" />
            <mxPoint as="offset" />
          </mxGeometry>
        </mxCell>
        <mxCell id="-5JTnPu0ODjV_CeIKEp3-2" value="Распределение матриц решений" style="rounded=0;whiteSpace=wrap;html=1;" parent="-5JTnPu0ODjV_CeIKEp3-1" vertex="1">
          <mxGeometry width="120" height="60" as="geometry" />
        </mxCell>
        <mxCell id="-5JTnPu0ODjV_CeIKEp3-3" value="А322" style="text;html=1;strokeColor=none;fillColor=none;align=center;verticalAlign=middle;whiteSpace=wrap;rounded=0;" parent="-5JTnPu0ODjV_CeIKEp3-1" vertex="1">
          <mxGeometry x="90" y="44" width="30" height="16" as="geometry" />
        </mxCell>
        <mxCell id="-5JTnPu0ODjV_CeIKEp3-4" value="Матрицы&lt;br&gt;решений" style="edgeStyle=orthogonalEdgeStyle;rounded=1;orthogonalLoop=1;jettySize=auto;html=1;entryX=0;entryY=0.25;entryDx=0;entryDy=0;strokeColor=#6D1F00;endArrow=block;endFill=1;fillColor=#a0522d;" parent="P_emKmW7A5pSrtwgPLMN-1" source="hR7w_iYyYy1LM_3Q_ss9-2" target="-5JTnPu0ODjV_CeIKEp3-2" edge="1">
          <mxGeometry relative="1" as="geometry" />
        </mxCell>
        <mxCell id="-5JTnPu0ODjV_CeIKEp3-5" value="&lt;font style=&quot;font-size: 10px;&quot;&gt;Обработанные статистические показатели&lt;/font&gt;" style="endArrow=block;html=1;rounded=0;entryX=-0.006;entryY=0.826;entryDx=0;entryDy=0;strokeColor=#9AC7BF;endFill=1;entryPerimeter=0;" parent="P_emKmW7A5pSrtwgPLMN-1" target="-5JTnPu0ODjV_CeIKEp3-2" edge="1">
          <mxGeometry x="-0.0806" width="50" height="50" relative="1" as="geometry">
            <mxPoint x="17" y="229" as="sourcePoint" />
            <mxPoint x="97" y="229" as="targetPoint" />
            <mxPoint as="offset" />
          </mxGeometry>
        </mxCell>
        <mxCell id="q15C1_vm1--Iq8iw6Dn3-1" value="" style="group" parent="P_emKmW7A5pSrtwgPLMN-1" vertex="1" connectable="0">
          <mxGeometry x="417" y="259" width="120" height="60" as="geometry" />
        </mxCell>
        <mxCell id="Y_swCgmAayxATdfGVj4i-2" value="Заключение" style="edgeStyle=orthogonalEdgeStyle;rounded=0;orthogonalLoop=1;jettySize=auto;html=1;endArrow=block;endFill=1;strokeColor=#00FF00;" parent="q15C1_vm1--Iq8iw6Dn3-1" source="q15C1_vm1--Iq8iw6Dn3-2" edge="1">
          <mxGeometry x="-0.5062" y="40" relative="1" as="geometry">
            <mxPoint x="160" y="30" as="targetPoint" />
            <mxPoint as="offset" />
          </mxGeometry>
        </mxCell>
        <mxCell id="q15C1_vm1--Iq8iw6Dn3-2" value="Вывод эксперта по поводу результатов" style="rounded=0;whiteSpace=wrap;html=1;" parent="q15C1_vm1--Iq8iw6Dn3-1" vertex="1">
          <mxGeometry width="120" height="60" as="geometry" />
        </mxCell>
        <mxCell id="q15C1_vm1--Iq8iw6Dn3-3" value="А323" style="text;html=1;strokeColor=none;fillColor=none;align=center;verticalAlign=middle;whiteSpace=wrap;rounded=0;" parent="q15C1_vm1--Iq8iw6Dn3-1" vertex="1">
          <mxGeometry x="90" y="44" width="30" height="16" as="geometry" />
        </mxCell>
        <mxCell id="RJHiRYaT7FPFBjMiuBGp-1" value="" style="edgeStyle=orthogonalEdgeStyle;rounded=1;orthogonalLoop=1;jettySize=auto;html=1;endArrow=block;endFill=1;strokeColor=#0000CC;exitX=1;exitY=0.5;exitDx=0;exitDy=0;entryX=0;entryY=0.5;entryDx=0;entryDy=0;" parent="P_emKmW7A5pSrtwgPLMN-1" source="-5JTnPu0ODjV_CeIKEp3-2" target="q15C1_vm1--Iq8iw6Dn3-2" edge="1">
          <mxGeometry relative="1" as="geometry">
            <mxPoint x="586.9999999999998" y="219" as="targetPoint" />
            <mxPoint x="387" y="219" as="sourcePoint" />
          </mxGeometry>
        </mxCell>
        <mxCell id="o7gVCFTIzatxdiGYRVtQ-1" value="Количество&lt;br&gt;строк&lt;br&gt;матрицы" style="endArrow=block;html=1;rounded=0;entryX=0;entryY=0.5;entryDx=0;entryDy=0;strokeColor=#6666FF;endFill=1;" parent="1" edge="1">
          <mxGeometry x="-0.025" y="20" width="50" height="50" relative="1" as="geometry">
            <mxPoint x="40" y="90" as="sourcePoint" />
            <mxPoint x="120" y="90" as="targetPoint" />
            <mxPoint as="offset" />
          </mxGeometry>
        </mxCell>
        <mxCell id="d8X0pgp5Qmyx9LWQNfpq-2" value="Прочие&lt;br&gt;данные" style="endArrow=block;html=1;rounded=0;entryX=0;entryY=0.5;entryDx=0;entryDy=0;strokeColor=#CC6600;endFill=1;" parent="1" edge="1">
          <mxGeometry y="-13" width="50" height="50" relative="1" as="geometry">
            <mxPoint x="40" y="130" as="sourcePoint" />
            <mxPoint x="120" y="130" as="targetPoint" />
            <mxPoint as="offset" />
          </mxGeometry>
        </mxCell>
        <mxCell id="Y_swCgmAayxATdfGVj4i-1" value="" style="edgeStyle=isometricEdgeStyle;endArrow=none;html=1;rounded=0;strokeColor=#0000CC;" parent="1" edge="1">
          <mxGeometry width="50" height="100" relative="1" as="geometry">
            <mxPoint x="410" y="230" as="sourcePoint" />
            <mxPoint x="440" y="220" as="targetPoint" />
          </mxGeometry>
        </mxCell>
        <mxCell id="3tuFYGpzfMuJDEgksSPH-1" value="" style="edgeStyle=isometricEdgeStyle;endArrow=none;html=1;rounded=0;strokeColor=#00FF00;" parent="1" edge="1">
          <mxGeometry width="50" height="100" relative="1" as="geometry">
            <mxPoint x="580" y="280" as="sourcePoint" />
            <mxPoint x="570" y="310" as="targetPoint" />
            <Array as="points">
              <mxPoint x="570" y="290" />
            </Array>
          </mxGeometry>
        </mxCell>
        <mxCell id="kLXLzCbsrHwqEAev1AMQ-1" value="Состояние проверки" style="endArrow=classic;html=1;rounded=0;entryX=0.5;entryY=0;entryDx=0;entryDy=0;strokeColor=#FF3399;" parent="1" target="hR7w_iYyYy1LM_3Q_ss9-2" edge="1">
          <mxGeometry x="-0.3333" width="50" height="50" relative="1" as="geometry">
            <mxPoint x="180" y="50" as="sourcePoint" />
            <mxPoint x="290" y="40" as="targetPoint" />
            <mxPoint as="offset" />
          </mxGeometry>
        </mxCell>
      </root>
    </mxGraphModel>
  </diagram>
</mxfile>
